G04 Layer_Color=32896*
%FSLAX23Y23*%
%MOIN*%
G70*
G01*
G75*
%ADD49C,0.006*%
%ADD50C,0.004*%
%ADD52C,0.005*%
%ADD83C,0.007*%
%ADD84R,0.149X0.242*%
G36*
X54Y438D02*
Y437D01*
X57Y417D01*
Y417D01*
Y417D01*
X58Y417D01*
X58Y416D01*
X72Y411D01*
X73D01*
X89Y422D01*
X91D01*
X91Y422D01*
X105Y408D01*
Y408D01*
Y407D01*
Y407D01*
Y407D01*
X94Y390D01*
Y390D01*
Y390D01*
Y389D01*
Y389D01*
X100Y375D01*
Y375D01*
X100Y375D01*
X101Y374D01*
X120Y371D01*
X120D01*
X121Y371D01*
Y370D01*
Y350D01*
Y350D01*
X120Y350D01*
X120Y349D01*
X101Y345D01*
X101D01*
X101Y345D01*
X100Y345D01*
X94Y330D01*
Y330D01*
Y329D01*
Y329D01*
Y329D01*
X105Y313D01*
Y312D01*
Y312D01*
Y312D01*
X91Y298D01*
X91Y298D01*
X90D01*
X89Y298D01*
X74Y308D01*
X73D01*
X66Y304D01*
X66D01*
X66Y305D01*
X65Y305D01*
X51Y339D01*
Y339D01*
Y339D01*
X52Y340D01*
X54Y341D01*
X54Y341D01*
X54Y341D01*
X54Y342D01*
X55Y342D01*
X56Y343D01*
X57Y344D01*
X59Y346D01*
X61Y349D01*
X63Y352D01*
X64Y355D01*
X64Y360D01*
Y360D01*
Y361D01*
X64Y363D01*
X64Y365D01*
X63Y367D01*
X62Y370D01*
X60Y373D01*
X58Y375D01*
X58Y375D01*
X57Y376D01*
X56Y377D01*
X54Y378D01*
X52Y380D01*
X49Y381D01*
X46Y382D01*
X43Y382D01*
X41D01*
X40Y382D01*
X37Y381D01*
X35Y380D01*
X32Y379D01*
X30Y377D01*
X27Y375D01*
X27Y375D01*
X26Y374D01*
X26Y373D01*
X24Y371D01*
X23Y368D01*
X22Y366D01*
X21Y363D01*
X21Y360D01*
Y359D01*
X21Y358D01*
X22Y355D01*
X22Y353D01*
X24Y350D01*
X25Y347D01*
X27Y344D01*
X31Y342D01*
X31Y342D01*
X31Y341D01*
X32D01*
X32Y341D01*
X34Y340D01*
X34Y340D01*
X34Y339D01*
X21Y305D01*
X20Y305D01*
X19Y304D01*
X12Y308D01*
X11D01*
X-4Y298D01*
X-4Y298D01*
X-5D01*
X-5Y298D01*
X-20Y312D01*
Y312D01*
Y313D01*
Y313D01*
X-9Y329D01*
Y329D01*
Y329D01*
Y329D01*
Y330D01*
X-15Y345D01*
Y345D01*
Y345D01*
X-15Y345D01*
X-16D01*
X-34Y349D01*
X-34D01*
X-35Y350D01*
X-35Y350D01*
Y370D01*
Y370D01*
Y371D01*
X-35Y371D01*
X-34D01*
X-15Y374D01*
X-15D01*
X-14Y375D01*
X-14Y375D01*
X-8Y389D01*
Y389D01*
Y390D01*
Y390D01*
Y390D01*
Y390D01*
X-20Y407D01*
Y407D01*
Y407D01*
Y408D01*
Y408D01*
X-5Y422D01*
X-5Y422D01*
X-4D01*
X12Y411D01*
X14D01*
X27Y416D01*
X27D01*
X28Y417D01*
X28Y417D01*
Y417D01*
X32Y437D01*
Y437D01*
Y438D01*
X32Y438D01*
X33Y438D01*
X53D01*
X54Y438D01*
D02*
G37*
D49*
X1074Y449D02*
G03*
X1074Y449I-3J0D01*
G01*
X888D02*
G03*
X888Y449I-3J0D01*
G01*
X656Y288D02*
G03*
X656Y288I-3J0D01*
G01*
X686Y435D02*
G03*
X686Y435I-3J0D01*
G01*
D50*
X-19Y532D02*
G03*
X-54Y493I2J-37D01*
G01*
Y111D02*
G03*
X-19Y71I37J-2D01*
G01*
X937Y255D02*
Y491D01*
X1015Y255D02*
Y491D01*
X937D02*
X1015D01*
X937Y255D02*
X1015D01*
X805Y204D02*
X845D01*
X689Y215D02*
X731D01*
X854Y204D02*
X896D01*
X438Y540D02*
X593D01*
X-54Y107D02*
Y493D01*
X-19Y532D02*
X20D01*
X-19Y71D02*
X20D01*
X300Y64D02*
X593D01*
X158D02*
X217D01*
X142Y540D02*
X284D01*
X593Y446D02*
Y540D01*
Y64D02*
Y156D01*
X860Y337D02*
Y377D01*
X45Y-25D02*
Y35D01*
X55Y-15D02*
Y25D01*
X65Y-5D02*
Y10D01*
X35Y5D02*
X45D01*
X1135Y75D02*
X1160Y100D01*
X1135Y125D02*
X1160Y100D01*
X1135Y75D02*
Y125D01*
D52*
X771Y346D02*
X776Y351D01*
X786D01*
X791Y346D01*
Y326D01*
X786Y321D01*
X776D01*
X771Y326D01*
X761D02*
X756Y321D01*
X746D01*
X741Y326D01*
Y346D01*
X746Y351D01*
X756D01*
X761Y346D01*
Y341D01*
X756Y336D01*
X741D01*
X715Y500D02*
X710Y505D01*
Y515D01*
X715Y520D01*
X720D01*
X725Y515D01*
Y505D01*
X730Y500D01*
X735D01*
X740Y505D01*
Y515D01*
X735Y520D01*
X715Y490D02*
X710Y485D01*
Y475D01*
X715Y470D01*
X720D01*
X725Y475D01*
Y480D01*
Y475D01*
X730Y470D01*
X735D01*
X740Y475D01*
Y485D01*
X735Y490D01*
X687Y360D02*
X682Y365D01*
Y375D01*
X687Y380D01*
X692D01*
X697Y375D01*
Y365D01*
X702Y360D01*
X707D01*
X712Y365D01*
Y375D01*
X707Y380D01*
X712Y330D02*
Y350D01*
X692Y330D01*
X687D01*
X682Y335D01*
Y345D01*
X687Y350D01*
X-14Y180D02*
X-19Y185D01*
Y195D01*
X-14Y200D01*
X-9D01*
X-4Y195D01*
Y185D01*
X1Y180D01*
X6D01*
X11Y185D01*
Y195D01*
X6Y200D01*
X-19Y170D02*
X11D01*
Y155D01*
X6Y150D01*
X-14D01*
X-19Y155D01*
Y170D01*
X11Y140D02*
Y130D01*
Y135D01*
X-19D01*
X-14Y140D01*
X761Y272D02*
X756Y277D01*
Y287D01*
X761Y292D01*
X766D01*
X771Y287D01*
Y277D01*
X776Y272D01*
X781D01*
X786Y277D01*
Y287D01*
X781Y292D01*
X786Y262D02*
Y252D01*
Y257D01*
X756D01*
X761Y262D01*
X862Y321D02*
X892D01*
Y301D01*
X867Y291D02*
X862Y286D01*
Y276D01*
X867Y271D01*
X872D01*
X877Y276D01*
Y281D01*
Y276D01*
X882Y271D01*
X887D01*
X892Y276D01*
Y286D01*
X887Y291D01*
X641Y242D02*
X671D01*
Y222D01*
Y192D02*
Y212D01*
X651Y192D01*
X646D01*
X641Y197D01*
Y207D01*
X646Y212D01*
X893Y427D02*
X898D01*
X908Y417D01*
X898Y407D01*
X893D01*
X908Y417D02*
X923D01*
Y397D02*
Y387D01*
Y392D01*
X893D01*
X898Y397D01*
X815Y301D02*
X810Y306D01*
Y316D01*
X815Y321D01*
X835D01*
X840Y316D01*
Y306D01*
X835Y301D01*
X810Y271D02*
X815Y281D01*
X825Y291D01*
X835D01*
X840Y286D01*
Y276D01*
X835Y271D01*
X830D01*
X825Y276D01*
Y291D01*
X829Y498D02*
X824Y503D01*
Y513D01*
X829Y518D01*
X834D01*
X839Y513D01*
Y503D01*
X844Y498D01*
X849D01*
X854Y503D01*
Y513D01*
X849Y518D01*
X824Y468D02*
Y488D01*
X839D01*
X834Y478D01*
Y473D01*
X839Y468D01*
X849D01*
X854Y473D01*
Y483D01*
X849Y488D01*
X1103Y498D02*
X1098Y503D01*
Y513D01*
X1103Y518D01*
X1108D01*
X1113Y513D01*
Y503D01*
X1118Y498D01*
X1123D01*
X1128Y503D01*
Y513D01*
X1123Y518D01*
X1128Y473D02*
X1098D01*
X1113Y488D01*
Y468D01*
X1028Y391D02*
X1048D01*
X1058Y381D01*
X1048Y371D01*
X1028D01*
X1058Y346D02*
Y356D01*
X1053Y361D01*
X1043D01*
X1038Y356D01*
Y346D01*
X1043Y341D01*
X1048D01*
Y361D01*
X1038Y331D02*
X1058D01*
X1048D01*
X1043Y326D01*
X1038Y321D01*
Y316D01*
X1058Y271D02*
Y261D01*
Y266D01*
X1028D01*
X1033Y271D01*
X1058Y246D02*
X1053D01*
Y241D01*
X1058D01*
Y246D01*
X1033Y221D02*
X1028Y216D01*
Y206D01*
X1033Y201D01*
X1038D01*
X1043Y206D01*
Y211D01*
Y206D01*
X1048Y201D01*
X1053D01*
X1058Y206D01*
Y216D01*
X1053Y221D01*
X1232Y40D02*
X1262D01*
Y25D01*
X1257Y20D01*
X1252D01*
X1247Y25D01*
Y40D01*
Y25D01*
X1242Y20D01*
X1237D01*
X1232Y25D01*
Y40D01*
X1262Y10D02*
Y0D01*
Y5D01*
X1232D01*
X1237Y10D01*
X1232Y-15D02*
Y-35D01*
X1237D01*
X1257Y-15D01*
X1262D01*
X1132Y40D02*
X1162D01*
Y25D01*
X1157Y20D01*
X1152D01*
X1147Y25D01*
Y40D01*
Y25D01*
X1142Y20D01*
X1137D01*
X1132Y25D01*
Y40D01*
X1162Y10D02*
Y0D01*
Y5D01*
X1132D01*
X1137Y10D01*
X1132Y-35D02*
X1137Y-25D01*
X1147Y-15D01*
X1157D01*
X1162Y-20D01*
Y-30D01*
X1157Y-35D01*
X1152D01*
X1147Y-30D01*
Y-15D01*
X832Y30D02*
X862D01*
Y15D01*
X857Y10D01*
X837D01*
X832Y15D01*
Y30D01*
Y0D02*
Y-20D01*
X837D01*
X857Y0D01*
X862D01*
X732Y30D02*
X762D01*
Y15D01*
X757Y10D01*
X737D01*
X732Y15D01*
Y30D01*
Y-20D02*
X737Y-10D01*
X747Y0D01*
X757D01*
X762Y-5D01*
Y-15D01*
X757Y-20D01*
X752D01*
X747Y-15D01*
Y0D01*
X632Y30D02*
X662D01*
Y15D01*
X657Y10D01*
X637D01*
X632Y15D01*
Y30D01*
Y-20D02*
Y0D01*
X647D01*
X642Y-10D01*
Y-15D01*
X647Y-20D01*
X657D01*
X662Y-15D01*
Y-5D01*
X657Y0D01*
X532Y30D02*
X562D01*
Y15D01*
X557Y10D01*
X537D01*
X532Y15D01*
Y30D01*
X562Y-15D02*
X532D01*
X547Y0D01*
Y-20D01*
X432Y30D02*
X462D01*
Y15D01*
X457Y10D01*
X437D01*
X432Y15D01*
Y30D01*
X437Y0D02*
X432Y-5D01*
Y-15D01*
X437Y-20D01*
X442D01*
X447Y-15D01*
Y-10D01*
Y-15D01*
X452Y-20D01*
X457D01*
X462Y-15D01*
Y-5D01*
X457Y0D01*
X332Y30D02*
X362D01*
Y15D01*
X357Y10D01*
X337D01*
X332Y15D01*
Y30D01*
X362Y-20D02*
Y0D01*
X342Y-20D01*
X337D01*
X332Y-15D01*
Y-5D01*
X337Y0D01*
X232Y30D02*
X262D01*
Y15D01*
X257Y10D01*
X237D01*
X232Y15D01*
Y30D01*
X262Y0D02*
Y-10D01*
Y-5D01*
X232D01*
X237Y0D01*
X132Y30D02*
X162D01*
Y15D01*
X157Y10D01*
X137D01*
X132Y15D01*
Y30D01*
X137Y0D02*
X132Y-5D01*
Y-15D01*
X137Y-20D01*
X157D01*
X162Y-15D01*
Y-5D01*
X157Y0D01*
X137D01*
X932Y10D02*
Y30D01*
X962D01*
Y10D01*
X947Y30D02*
Y20D01*
X937Y0D02*
X932Y-5D01*
Y-15D01*
X937Y-20D01*
X957D01*
X962Y-15D01*
Y-5D01*
X957Y0D01*
X937D01*
X1032Y10D02*
Y30D01*
X1062D01*
Y10D01*
X1047Y30D02*
Y20D01*
X1062Y0D02*
Y-10D01*
Y-5D01*
X1032D01*
X1037Y0D01*
X1167Y525D02*
X1142D01*
Y513D01*
X1146Y508D01*
X1155D01*
X1159Y513D01*
Y525D01*
Y517D02*
X1167Y508D01*
Y500D02*
Y488D01*
X1163Y483D01*
X1159Y488D01*
Y496D01*
X1155Y500D01*
X1150Y496D01*
Y483D01*
X1146Y471D02*
X1150D01*
Y475D01*
Y467D01*
Y471D01*
X1163D01*
X1167Y467D01*
X1268Y520D02*
X1248D01*
X1238Y510D01*
X1248Y500D01*
X1268D01*
X1253D01*
Y520D01*
X1268Y475D02*
X1238D01*
X1253Y490D01*
Y470D01*
X1132Y620D02*
X1162D01*
Y605D01*
X1157Y600D01*
X1152D01*
X1147Y605D01*
Y620D01*
Y605D01*
X1142Y600D01*
X1137D01*
X1132Y605D01*
Y620D01*
X1137Y590D02*
X1132Y585D01*
Y575D01*
X1137Y570D01*
X1157D01*
X1162Y575D01*
Y585D01*
X1157Y590D01*
X1137D01*
X1032Y620D02*
X1062D01*
Y605D01*
X1057Y600D01*
X1052D01*
X1047Y605D01*
Y620D01*
Y605D01*
X1042Y600D01*
X1037D01*
X1032Y605D01*
Y620D01*
X1062Y590D02*
Y580D01*
Y585D01*
X1032D01*
X1037Y590D01*
X237Y600D02*
X232Y605D01*
Y615D01*
X237Y620D01*
X257D01*
X262Y615D01*
Y605D01*
X257Y600D01*
X232Y590D02*
Y570D01*
X237D01*
X257Y590D01*
X262D01*
X337Y600D02*
X332Y605D01*
Y615D01*
X337Y620D01*
X357D01*
X362Y615D01*
Y605D01*
X357Y600D01*
X332Y570D02*
X337Y580D01*
X347Y590D01*
X357D01*
X362Y585D01*
Y575D01*
X357Y570D01*
X352D01*
X347Y575D01*
Y590D01*
X437Y600D02*
X432Y605D01*
Y615D01*
X437Y620D01*
X457D01*
X462Y615D01*
Y605D01*
X457Y600D01*
X432Y570D02*
Y590D01*
X447D01*
X442Y580D01*
Y575D01*
X447Y570D01*
X457D01*
X462Y575D01*
Y585D01*
X457Y590D01*
X537Y600D02*
X532Y605D01*
Y615D01*
X537Y620D01*
X557D01*
X562Y615D01*
Y605D01*
X557Y600D01*
X562Y575D02*
X532D01*
X547Y590D01*
Y570D01*
X637Y600D02*
X632Y605D01*
Y615D01*
X637Y620D01*
X657D01*
X662Y615D01*
Y605D01*
X657Y600D01*
X637Y590D02*
X632Y585D01*
Y575D01*
X637Y570D01*
X642D01*
X647Y575D01*
Y580D01*
Y575D01*
X652Y570D01*
X657D01*
X662Y575D01*
Y585D01*
X657Y590D01*
X737Y600D02*
X732Y605D01*
Y615D01*
X737Y620D01*
X757D01*
X762Y615D01*
Y605D01*
X757Y600D01*
X762Y570D02*
Y590D01*
X742Y570D01*
X737D01*
X732Y575D01*
Y585D01*
X737Y590D01*
X837Y600D02*
X832Y605D01*
Y615D01*
X837Y620D01*
X857D01*
X862Y615D01*
Y605D01*
X857Y600D01*
X862Y590D02*
Y580D01*
Y585D01*
X832D01*
X837Y590D01*
X937Y600D02*
X932Y605D01*
Y615D01*
X937Y620D01*
X957D01*
X962Y615D01*
Y605D01*
X957Y600D01*
X937Y590D02*
X932Y585D01*
Y575D01*
X937Y570D01*
X957D01*
X962Y575D01*
Y585D01*
X957Y590D01*
X937D01*
X1340Y535D02*
Y552D01*
X1332Y560D01*
X1323Y552D01*
Y535D01*
Y547D01*
X1340D01*
X1315Y535D02*
X1307D01*
X1311D01*
Y560D01*
X1315Y556D01*
X1278Y535D02*
X1294D01*
X1278Y552D01*
Y556D01*
X1282Y560D01*
X1290D01*
X1294Y556D01*
X1265Y635D02*
X1245D01*
X1235Y625D01*
X1245Y615D01*
X1265D01*
X1250D01*
Y635D01*
X1265Y605D02*
Y595D01*
Y600D01*
X1235D01*
X1240Y605D01*
Y580D02*
X1235Y575D01*
Y565D01*
X1240Y560D01*
X1245D01*
X1250Y565D01*
Y570D01*
Y565D01*
X1255Y560D01*
X1260D01*
X1265Y565D01*
Y575D01*
X1260Y580D01*
X47Y620D02*
Y600D01*
X37Y610D02*
X57D01*
X32Y570D02*
Y590D01*
X47D01*
X42Y580D01*
Y575D01*
X47Y570D01*
X57D01*
X62Y575D01*
Y585D01*
X57Y590D01*
X147Y620D02*
Y600D01*
X137Y610D02*
X157D01*
X137Y590D02*
X132Y585D01*
Y575D01*
X137Y570D01*
X142D01*
X147Y575D01*
Y580D01*
Y575D01*
X152Y570D01*
X157D01*
X162Y575D01*
Y585D01*
X157Y590D01*
X1305Y180D02*
X1325D01*
X1335Y170D01*
X1325Y160D01*
X1305D01*
X1335Y150D02*
Y135D01*
X1330Y130D01*
X1325Y135D01*
Y145D01*
X1320Y150D01*
X1315Y145D01*
Y130D01*
X1055Y140D02*
X1035D01*
X1025Y130D01*
X1035Y120D01*
X1055D01*
X1040D01*
Y140D01*
X1055Y110D02*
X1035D01*
Y95D01*
X1040Y90D01*
X1055D01*
X1040Y80D02*
Y60D01*
X1030Y70D02*
X1050D01*
X955Y140D02*
X935D01*
X925Y130D01*
X935Y120D01*
X955D01*
X940D01*
Y140D01*
X955Y110D02*
X935D01*
Y95D01*
X940Y90D01*
X955D01*
X940Y80D02*
Y60D01*
X1235Y125D02*
X1255D01*
X1265Y115D01*
X1255Y105D01*
X1235D01*
X1245Y95D02*
X1265D01*
X1255D01*
X1250Y90D01*
X1245Y85D01*
Y80D01*
X1315Y65D02*
X1332D01*
X1340Y57D01*
X1332Y48D01*
X1315D01*
X1340Y36D02*
Y28D01*
X1336Y23D01*
X1328D01*
X1323Y28D01*
Y36D01*
X1328Y40D01*
X1336D01*
X1340Y36D01*
D83*
X86Y286D02*
X96D01*
X101Y281D01*
Y261D01*
X96Y256D01*
X86D01*
X81Y261D01*
Y281D01*
X86Y286D01*
X51Y281D02*
X56Y286D01*
X66D01*
X71Y281D01*
Y276D01*
X66Y271D01*
X56D01*
X51Y266D01*
Y261D01*
X56Y256D01*
X66D01*
X71Y261D01*
X41Y286D02*
Y256D01*
Y271D01*
X21D01*
Y286D01*
Y256D01*
X11Y286D02*
Y256D01*
X1Y266D01*
X-9Y256D01*
Y286D01*
D84*
X1143Y293D02*
D03*
M02*
