G04 Layer_Physical_Order=4*
G04 Layer_Color=16711680*
%FSLAX23Y23*%
%MOIN*%
G70*
G01*
G75*
%ADD10R,0.043X0.039*%
%ADD11R,0.028X0.020*%
%ADD16R,0.039X0.043*%
%ADD25C,0.006*%
%ADD27C,0.015*%
%ADD28C,0.010*%
%ADD31R,0.006X0.012*%
%ADD32C,0.047*%
%ADD33R,0.047X0.047*%
%ADD34R,0.039X0.039*%
%ADD35C,0.039*%
%ADD36O,0.028X0.039*%
%ADD37C,0.027*%
%ADD38C,0.030*%
%ADD39R,0.035X0.047*%
%ADD40R,0.041X0.067*%
%ADD41R,0.047X0.041*%
%ADD42R,0.035X0.041*%
%ADD43R,0.049X0.035*%
%ADD44R,0.085X0.037*%
%ADD45R,0.091X0.047*%
%ADD46R,0.037X0.028*%
G36*
X753Y635D02*
X744Y626D01*
X742Y623D01*
X741Y619D01*
Y582D01*
X734Y578D01*
X730Y571D01*
X728Y563D01*
X730Y555D01*
X732Y551D01*
X730Y547D01*
X650D01*
X646Y546D01*
X643Y544D01*
X578Y479D01*
X576Y476D01*
X575Y473D01*
X570Y470D01*
X566Y463D01*
X564Y455D01*
X566Y447D01*
X570Y440D01*
X571Y440D01*
X570Y436D01*
X547D01*
Y401D01*
X573D01*
Y396D01*
X578D01*
Y357D01*
X599D01*
Y397D01*
X603Y399D01*
X605Y398D01*
X613Y396D01*
X614Y395D01*
X613Y390D01*
X615Y382D01*
X619Y375D01*
X626Y371D01*
X632Y369D01*
Y340D01*
Y292D01*
X674D01*
X674Y292D01*
Y292D01*
X677Y294D01*
X680Y292D01*
X688Y290D01*
X696Y292D01*
X703Y296D01*
X707Y303D01*
X709Y311D01*
X707Y319D01*
X703Y326D01*
X703Y327D01*
X704Y330D01*
X708D01*
X739Y299D01*
X742Y297D01*
X746Y296D01*
X1050D01*
X1086Y259D01*
X1085Y256D01*
X1083Y255D01*
X1076Y251D01*
X1072Y244D01*
X1070Y236D01*
X1072Y228D01*
X1076Y221D01*
X1083Y217D01*
X1091Y215D01*
X1099Y217D01*
X1106Y221D01*
X1110Y228D01*
X1111Y230D01*
X1114Y231D01*
X1120Y226D01*
Y135D01*
X1121Y131D01*
X1123Y128D01*
X1135Y116D01*
Y101D01*
X1131Y101D01*
X1130Y103D01*
X1130Y108D01*
X1127Y115D01*
X1122Y122D01*
X1115Y127D01*
X1108Y130D01*
X1100Y131D01*
X1092Y130D01*
X1085Y127D01*
X1078Y122D01*
X1073Y115D01*
X1070Y108D01*
X1069Y100D01*
X1070Y92D01*
X1073Y85D01*
X1078Y78D01*
X1085Y73D01*
X1092Y70D01*
X1100Y69D01*
X1108Y70D01*
X1115Y73D01*
X1122Y78D01*
X1127Y85D01*
X1130Y92D01*
X1130Y97D01*
X1131Y99D01*
X1135Y99D01*
Y49D01*
X1113Y28D01*
X1108Y30D01*
X1100Y31D01*
X1092Y30D01*
X1085Y27D01*
X1078Y22D01*
X1073Y15D01*
X1070Y8D01*
X1069Y0D01*
X1070Y-8D01*
X1073Y-15D01*
X1078Y-22D01*
X1085Y-27D01*
X1092Y-30D01*
X1100Y-31D01*
X1108Y-30D01*
X1115Y-27D01*
X1122Y-22D01*
X1127Y-15D01*
X1130Y-8D01*
X1131Y0D01*
X1130Y8D01*
X1128Y13D01*
X1148Y33D01*
X1153Y33D01*
X1172Y13D01*
X1170Y8D01*
X1169Y0D01*
X1170Y-8D01*
X1173Y-15D01*
X1178Y-22D01*
X1185Y-27D01*
X1192Y-30D01*
X1200Y-31D01*
X1208Y-30D01*
X1215Y-27D01*
X1222Y-22D01*
X1227Y-15D01*
X1230Y-8D01*
X1231Y0D01*
X1230Y8D01*
X1227Y15D01*
X1222Y22D01*
X1215Y27D01*
X1208Y30D01*
X1200Y31D01*
X1192Y30D01*
X1187Y28D01*
X1170Y44D01*
Y82D01*
X1174Y83D01*
X1178Y78D01*
X1185Y73D01*
X1192Y70D01*
X1200Y69D01*
X1208Y70D01*
X1215Y73D01*
X1222Y78D01*
X1227Y85D01*
X1230Y92D01*
X1231Y100D01*
X1230Y108D01*
X1227Y115D01*
X1222Y122D01*
X1215Y127D01*
X1208Y130D01*
X1200Y131D01*
X1192Y130D01*
X1185Y127D01*
X1178Y122D01*
X1174Y117D01*
X1170Y118D01*
Y125D01*
X1169Y129D01*
X1167Y132D01*
X1157Y142D01*
Y244D01*
X1156Y248D01*
X1154Y251D01*
X1073Y332D01*
X1070Y334D01*
X1066Y335D01*
X921D01*
Y352D01*
X866D01*
Y335D01*
X855D01*
Y384D01*
X828D01*
Y390D01*
X833Y393D01*
X834Y395D01*
X839Y395D01*
X841Y392D01*
X845Y390D01*
X849Y389D01*
X1112D01*
X1115Y390D01*
X1119Y392D01*
X1186Y460D01*
X1190Y458D01*
Y335D01*
X1191Y331D01*
X1193Y328D01*
X1261Y259D01*
X1260Y256D01*
Y230D01*
X1250D01*
Y255D01*
X1248Y255D01*
X1242Y252D01*
X1237Y248D01*
X1233Y243D01*
X1232Y243D01*
X1228Y242D01*
X1226Y243D01*
X1227Y245D01*
X1225Y253D01*
X1221Y260D01*
X1214Y264D01*
X1206Y266D01*
X1198Y264D01*
X1191Y260D01*
X1187Y253D01*
X1185Y245D01*
X1187Y237D01*
X1191Y230D01*
X1198Y226D01*
X1206Y224D01*
X1208Y225D01*
X1212Y221D01*
Y205D01*
X1212Y201D01*
X1215Y198D01*
X1228Y185D01*
X1231Y183D01*
X1235Y182D01*
X1319D01*
X1323Y183D01*
X1326Y185D01*
X1334Y193D01*
X1338Y191D01*
Y-39D01*
X664D01*
X662Y-35D01*
X665Y-30D01*
X667Y-22D01*
X665Y-14D01*
X660Y-7D01*
X654Y-3D01*
X646Y-1D01*
X638Y-3D01*
X634Y-5D01*
X631Y-2D01*
X631Y0D01*
X630Y8D01*
X627Y15D01*
X622Y22D01*
X615Y27D01*
X608Y30D01*
X600Y31D01*
X592Y30D01*
X585Y27D01*
X578Y22D01*
X573Y15D01*
X572Y12D01*
X567Y11D01*
X533Y45D01*
X530Y47D01*
X526Y48D01*
X453D01*
X412Y89D01*
Y165D01*
X411Y169D01*
X409Y172D01*
X406Y175D01*
X407Y179D01*
X405Y187D01*
X401Y194D01*
X394Y198D01*
X386Y200D01*
X378Y198D01*
X371Y194D01*
X367Y187D01*
X365Y179D01*
X367Y171D01*
X371Y164D01*
X377Y161D01*
X376Y156D01*
X372Y156D01*
X358Y169D01*
X355Y171D01*
X351Y172D01*
X299D01*
X285Y186D01*
Y295D01*
X284Y299D01*
X282Y302D01*
X193Y392D01*
X189Y394D01*
X186Y395D01*
X183D01*
Y405D01*
X183D01*
Y407D01*
X183D01*
Y449D01*
X133D01*
Y454D01*
X157Y478D01*
X159Y481D01*
X160Y485D01*
Y514D01*
X164Y515D01*
X201Y478D01*
Y411D01*
X202Y405D01*
X206Y401D01*
X221Y385D01*
X223Y377D01*
X227Y370D01*
X234Y366D01*
X242Y364D01*
X250Y366D01*
X257Y370D01*
X261Y377D01*
X263Y385D01*
X261Y393D01*
X257Y400D01*
X250Y404D01*
X242Y406D01*
X231Y417D01*
Y484D01*
X230Y490D01*
X226Y494D01*
X160Y560D01*
X160Y560D01*
X130Y591D01*
X130Y592D01*
X131Y600D01*
X130Y608D01*
X127Y615D01*
X122Y622D01*
X115Y627D01*
X108Y630D01*
X100Y631D01*
X92Y630D01*
X85Y627D01*
X78Y622D01*
X73Y615D01*
X70Y608D01*
X69Y600D01*
X70Y592D01*
X73Y585D01*
X78Y578D01*
X85Y573D01*
X92Y570D01*
X100Y569D01*
X108Y570D01*
X109Y570D01*
X129Y550D01*
X127Y546D01*
X88D01*
Y526D01*
X132D01*
Y542D01*
X136Y543D01*
X140Y540D01*
X140Y540D01*
X140Y539D01*
Y490D01*
X116Y466D01*
X114Y462D01*
X113Y458D01*
Y302D01*
X114Y298D01*
X116Y295D01*
X120Y291D01*
X123Y288D01*
X127Y288D01*
X129D01*
X132Y285D01*
X132Y277D01*
X132Y273D01*
Y235D01*
X132Y234D01*
X133Y230D01*
X133Y230D01*
Y216D01*
X158D01*
Y206D01*
X133D01*
X133Y192D01*
X132Y189D01*
X132Y188D01*
Y147D01*
X132D01*
Y145D01*
X132D01*
Y116D01*
X90D01*
Y87D01*
Y57D01*
X129D01*
X131Y54D01*
X131Y53D01*
X129Y45D01*
X131Y37D01*
X135Y30D01*
X142Y26D01*
X150Y24D01*
X158Y26D01*
X165Y30D01*
X169Y37D01*
X171Y45D01*
X170Y50D01*
X196Y77D01*
X200Y75D01*
Y64D01*
X193Y57D01*
X191Y54D01*
X190Y50D01*
Y29D01*
X185Y27D01*
X178Y22D01*
X173Y15D01*
X170Y8D01*
X169Y0D01*
X170Y-8D01*
X173Y-15D01*
X178Y-22D01*
X185Y-27D01*
X192Y-30D01*
X200Y-31D01*
X208Y-30D01*
X215Y-27D01*
X222Y-22D01*
X227Y-15D01*
X230Y-8D01*
X231Y0D01*
X230Y8D01*
X227Y15D01*
X222Y22D01*
X215Y27D01*
X210Y29D01*
Y46D01*
X217Y53D01*
X219Y56D01*
X220Y57D01*
X223Y58D01*
X224Y58D01*
X249D01*
Y81D01*
Y104D01*
X224D01*
X223Y104D01*
X220Y106D01*
Y170D01*
X219Y174D01*
X217Y177D01*
X205Y189D01*
Y250D01*
X204Y253D01*
X202Y257D01*
X197Y262D01*
X194Y264D01*
X190Y265D01*
X186D01*
X183Y268D01*
X183Y275D01*
X183Y279D01*
Y319D01*
X183D01*
Y320D01*
X183D01*
Y331D01*
X202D01*
X250Y283D01*
Y174D01*
X251Y170D01*
X253Y167D01*
X290Y130D01*
Y29D01*
X285Y27D01*
X278Y22D01*
X273Y15D01*
X270Y8D01*
X269Y0D01*
X270Y-8D01*
X273Y-15D01*
X278Y-22D01*
X285Y-27D01*
X292Y-30D01*
X300Y-31D01*
X308Y-30D01*
X315Y-27D01*
X322Y-22D01*
X327Y-15D01*
X327Y-15D01*
X332Y-13D01*
X333Y-14D01*
X334Y-15D01*
X336Y-18D01*
X353Y-35D01*
X351Y-39D01*
X-34D01*
Y591D01*
X-30Y592D01*
X-27Y585D01*
X-22Y578D01*
X-15Y573D01*
X-8Y570D01*
X0Y569D01*
X8Y570D01*
X15Y573D01*
X22Y578D01*
X27Y585D01*
X30Y592D01*
X31Y600D01*
X30Y608D01*
X27Y615D01*
X22Y622D01*
X15Y627D01*
X8Y630D01*
X0Y631D01*
X-8Y630D01*
X-15Y627D01*
X-22Y622D01*
X-27Y615D01*
X-30Y608D01*
X-34Y609D01*
Y639D01*
X751D01*
X753Y635D01*
D02*
G37*
G36*
X1033Y589D02*
Y586D01*
X1034Y582D01*
X1036Y579D01*
X1061Y554D01*
Y535D01*
X1050D01*
Y501D01*
Y453D01*
X1060D01*
X1060Y449D01*
X1057Y446D01*
X1035D01*
X1033Y449D01*
X1033Y450D01*
X1035Y458D01*
X1033Y466D01*
X1029Y473D01*
X1022Y477D01*
X1014Y479D01*
X1006Y477D01*
X999Y473D01*
X995Y466D01*
X993Y458D01*
X995Y450D01*
X995Y449D01*
X993Y446D01*
X878D01*
X874Y449D01*
X876Y453D01*
X906D01*
Y484D01*
X910D01*
X914Y485D01*
X918Y487D01*
X922Y491D01*
X924Y495D01*
X925Y499D01*
Y544D01*
X941Y559D01*
X971D01*
X975Y560D01*
X979Y562D01*
X988Y572D01*
X992Y570D01*
X1000Y569D01*
X1008Y570D01*
X1015Y573D01*
X1022Y578D01*
X1027Y585D01*
X1029Y590D01*
X1033Y589D01*
D02*
G37*
G36*
X1338Y367D02*
X1334Y365D01*
X1330Y370D01*
X1331Y373D01*
X1332Y380D01*
X1331Y387D01*
X1328Y393D01*
X1324Y399D01*
X1319Y403D01*
X1319Y405D01*
Y405D01*
X1319Y407D01*
X1324Y411D01*
X1328Y417D01*
X1331Y423D01*
X1332Y430D01*
X1331Y437D01*
X1328Y443D01*
X1324Y449D01*
X1318Y453D01*
X1312Y456D01*
X1305Y457D01*
X1298Y456D01*
X1292Y453D01*
X1286Y449D01*
X1286Y449D01*
X1282Y450D01*
Y457D01*
X1228D01*
Y403D01*
X1237D01*
X1238Y399D01*
X1237Y398D01*
X1233Y393D01*
X1230Y387D01*
X1230Y385D01*
X1255D01*
Y375D01*
X1230D01*
X1230Y373D01*
X1233Y367D01*
X1237Y362D01*
X1242Y358D01*
X1243Y357D01*
Y353D01*
X1242Y352D01*
X1237Y348D01*
X1233Y343D01*
X1230Y337D01*
X1230Y335D01*
X1255D01*
Y325D01*
X1229D01*
X1226Y324D01*
X1210Y339D01*
Y471D01*
X1215Y473D01*
X1222Y478D01*
X1227Y485D01*
X1230Y492D01*
X1231Y500D01*
X1230Y508D01*
X1227Y515D01*
X1222Y522D01*
X1215Y527D01*
X1208Y530D01*
X1200Y531D01*
X1192Y530D01*
X1185Y527D01*
X1178Y522D01*
X1173Y515D01*
X1170Y508D01*
X1169Y500D01*
X1170Y492D01*
X1173Y485D01*
X1177Y480D01*
X1159Y462D01*
X1155Y463D01*
Y529D01*
X1171Y545D01*
X1225D01*
X1229Y546D01*
X1232Y548D01*
X1269Y585D01*
X1274Y584D01*
X1278Y578D01*
X1285Y573D01*
X1292Y570D01*
X1300Y569D01*
X1308Y570D01*
X1315Y573D01*
X1322Y578D01*
X1327Y585D01*
X1330Y592D01*
X1331Y600D01*
X1330Y608D01*
X1327Y615D01*
X1322Y622D01*
X1315Y627D01*
X1308Y630D01*
X1300Y631D01*
X1292Y630D01*
X1285Y627D01*
X1278Y622D01*
X1273Y615D01*
X1271Y610D01*
X1270D01*
X1266Y609D01*
X1263Y607D01*
X1221Y565D01*
X1201D01*
X1201Y569D01*
X1208Y570D01*
X1215Y573D01*
X1222Y578D01*
X1227Y585D01*
X1230Y592D01*
X1231Y600D01*
X1230Y608D01*
X1227Y615D01*
X1222Y622D01*
X1215Y627D01*
X1208Y630D01*
X1200Y631D01*
X1192Y630D01*
X1185Y627D01*
X1178Y622D01*
X1173Y615D01*
X1171Y610D01*
X1165D01*
X1161Y609D01*
X1158Y607D01*
X1124Y573D01*
X1122Y570D01*
X1121Y566D01*
Y473D01*
X1083Y435D01*
X1081Y435D01*
X1080Y436D01*
X1079Y440D01*
X1080Y442D01*
X1081Y445D01*
Y453D01*
X1092D01*
Y487D01*
X1092D01*
X1096Y488D01*
X1099Y490D01*
X1106Y497D01*
X1108Y500D01*
X1109Y504D01*
Y571D01*
X1115Y573D01*
X1122Y578D01*
X1127Y585D01*
X1130Y592D01*
X1131Y600D01*
X1130Y608D01*
X1127Y615D01*
X1122Y622D01*
X1115Y627D01*
X1108Y630D01*
X1100Y631D01*
X1092Y630D01*
X1085Y627D01*
X1078Y622D01*
X1073Y615D01*
X1070Y608D01*
X1069Y600D01*
X1070Y592D01*
X1073Y585D01*
X1078Y578D01*
X1085Y573D01*
X1089Y571D01*
Y535D01*
X1081D01*
Y558D01*
X1080Y562D01*
X1078Y565D01*
X1053Y590D01*
Y622D01*
X1052Y626D01*
X1050Y629D01*
X1044Y635D01*
X1046Y639D01*
X1338D01*
Y367D01*
D02*
G37*
%LPC*%
G36*
X599Y202D02*
X578D01*
Y168D01*
X599D01*
Y202D01*
D02*
G37*
G36*
X80Y116D02*
X34D01*
Y92D01*
X80D01*
Y116D01*
D02*
G37*
G36*
X259Y104D02*
Y86D01*
X285D01*
Y104D01*
X259D01*
D02*
G37*
G36*
X901Y232D02*
X880D01*
Y210D01*
X901D01*
Y232D01*
D02*
G37*
G36*
X339Y309D02*
X331Y307D01*
X324Y303D01*
X320Y296D01*
X318Y288D01*
X318Y287D01*
X316Y285D01*
X315Y285D01*
X307Y283D01*
X300Y279D01*
X296Y272D01*
X294Y264D01*
X296Y256D01*
X300Y249D01*
X307Y245D01*
X315Y243D01*
X323Y245D01*
X330Y249D01*
X333Y254D01*
X482D01*
X488Y247D01*
X487Y242D01*
X489Y234D01*
X493Y227D01*
X500Y223D01*
X508Y221D01*
X516Y223D01*
X523Y227D01*
X527Y234D01*
X529Y242D01*
X527Y250D01*
X523Y256D01*
X523Y258D01*
Y260D01*
X523Y261D01*
X527Y268D01*
X529Y276D01*
X527Y284D01*
X523Y290D01*
X516Y295D01*
X508Y296D01*
X500Y295D01*
X493Y290D01*
X490Y286D01*
X385D01*
X376Y295D01*
X372Y297D01*
X369Y298D01*
X357D01*
X354Y303D01*
X347Y307D01*
X339Y309D01*
D02*
G37*
G36*
X901Y265D02*
X880D01*
Y242D01*
X901D01*
Y265D01*
D02*
G37*
G36*
X568Y247D02*
X547D01*
Y212D01*
X568D01*
Y247D01*
D02*
G37*
G36*
X599D02*
X578D01*
Y212D01*
X599D01*
Y247D01*
D02*
G37*
G36*
X-5Y-5D02*
X-30D01*
Y-30D01*
X-5D01*
Y-5D01*
D02*
G37*
G36*
X30D02*
X5D01*
Y-30D01*
X30D01*
Y-5D01*
D02*
G37*
G36*
X100Y31D02*
X92Y30D01*
X85Y27D01*
X78Y22D01*
X73Y15D01*
X70Y8D01*
X69Y0D01*
X70Y-8D01*
X73Y-15D01*
X78Y-22D01*
X85Y-27D01*
X92Y-30D01*
X100Y-31D01*
X108Y-30D01*
X115Y-27D01*
X122Y-22D01*
X127Y-15D01*
X130Y-8D01*
X131Y0D01*
X130Y8D01*
X127Y15D01*
X122Y22D01*
X115Y27D01*
X108Y30D01*
X100Y31D01*
D02*
G37*
G36*
X1300D02*
X1292Y30D01*
X1285Y27D01*
X1278Y22D01*
X1273Y15D01*
X1270Y8D01*
X1269Y0D01*
X1270Y-8D01*
X1273Y-15D01*
X1278Y-22D01*
X1285Y-27D01*
X1292Y-30D01*
X1300Y-31D01*
X1308Y-30D01*
X1315Y-27D01*
X1322Y-22D01*
X1327Y-15D01*
X1330Y-8D01*
X1331Y0D01*
X1330Y8D01*
X1327Y15D01*
X1322Y22D01*
X1315Y27D01*
X1308Y30D01*
X1300Y31D01*
D02*
G37*
G36*
X-5Y30D02*
X-30D01*
Y5D01*
X-5D01*
Y30D01*
D02*
G37*
G36*
X285Y76D02*
X259D01*
Y58D01*
X285D01*
Y76D01*
D02*
G37*
G36*
X1300Y131D02*
X1292Y130D01*
X1285Y127D01*
X1278Y122D01*
X1273Y115D01*
X1270Y108D01*
X1269Y100D01*
X1270Y92D01*
X1273Y85D01*
X1278Y78D01*
X1285Y73D01*
X1292Y70D01*
X1300Y69D01*
X1308Y70D01*
X1315Y73D01*
X1322Y78D01*
X1327Y85D01*
X1330Y92D01*
X1331Y100D01*
X1330Y108D01*
X1327Y115D01*
X1322Y122D01*
X1315Y127D01*
X1308Y130D01*
X1300Y131D01*
D02*
G37*
G36*
X30Y30D02*
X5D01*
Y5D01*
X30D01*
Y30D01*
D02*
G37*
G36*
X80Y82D02*
X34D01*
Y57D01*
X80D01*
Y82D01*
D02*
G37*
G36*
X737Y277D02*
X683D01*
Y270D01*
X680Y268D01*
X677Y270D01*
X669Y272D01*
X661Y270D01*
X654Y266D01*
X650Y259D01*
X648Y251D01*
X650Y243D01*
X654Y236D01*
X661Y232D01*
X669Y230D01*
X677Y232D01*
X680Y234D01*
X683Y232D01*
Y220D01*
X731D01*
Y210D01*
X683D01*
Y186D01*
X679Y185D01*
X673Y189D01*
X665Y191D01*
X657Y189D01*
X650Y185D01*
X646Y178D01*
X644Y170D01*
X646Y162D01*
X650Y155D01*
X654Y153D01*
X654Y150D01*
X650Y148D01*
X648Y149D01*
X640Y151D01*
X632Y149D01*
X625Y145D01*
X621Y138D01*
X620Y132D01*
X615Y131D01*
X611Y135D01*
X608Y137D01*
X604Y138D01*
X568D01*
X565Y143D01*
X558Y147D01*
X550Y149D01*
X542Y147D01*
X535Y143D01*
X534Y140D01*
X529Y140D01*
X523Y144D01*
X515Y146D01*
X512Y145D01*
X510Y149D01*
X522Y161D01*
X528Y160D01*
X536Y162D01*
X542Y166D01*
X543Y167D01*
X547Y168D01*
Y168D01*
X547Y168D01*
X568D01*
Y202D01*
X547D01*
Y196D01*
X543Y195D01*
X542Y196D01*
X536Y200D01*
X528Y202D01*
X520Y200D01*
X516Y198D01*
X512Y200D01*
X511Y201D01*
X507Y208D01*
X500Y212D01*
X492Y214D01*
X484Y212D01*
X477Y208D01*
X473Y201D01*
X471Y193D01*
X472Y189D01*
X468Y184D01*
X466Y181D01*
X465Y177D01*
Y116D01*
X466Y112D01*
X468Y109D01*
X476Y101D01*
X475Y97D01*
X472Y96D01*
X465Y92D01*
X461Y85D01*
X459Y77D01*
X461Y69D01*
X465Y62D01*
X472Y58D01*
X480Y56D01*
X488Y58D01*
X495Y62D01*
X499Y69D01*
X500Y72D01*
X504Y73D01*
X509Y68D01*
X512Y66D01*
X516Y65D01*
X586D01*
X619Y32D01*
X622Y30D01*
X626Y29D01*
X657D01*
X672Y13D01*
X670Y8D01*
X669Y0D01*
X670Y-8D01*
X673Y-15D01*
X678Y-22D01*
X685Y-27D01*
X692Y-30D01*
X700Y-31D01*
X708Y-30D01*
X715Y-27D01*
X722Y-22D01*
X727Y-15D01*
X730Y-8D01*
X731Y0D01*
X730Y6D01*
X734Y8D01*
X749Y-7D01*
X752Y-9D01*
X756Y-10D01*
X771D01*
X773Y-15D01*
X778Y-22D01*
X785Y-27D01*
X792Y-30D01*
X800Y-31D01*
X808Y-30D01*
X815Y-27D01*
X822Y-22D01*
X827Y-15D01*
X830Y-8D01*
X831Y0D01*
X831Y2D01*
X834Y3D01*
X845Y-7D01*
X848Y-9D01*
X852Y-10D01*
X871D01*
X873Y-15D01*
X878Y-22D01*
X885Y-27D01*
X892Y-30D01*
X900Y-31D01*
X908Y-30D01*
X915Y-27D01*
X922Y-22D01*
X927Y-15D01*
X930Y-8D01*
X931Y0D01*
X930Y8D01*
X927Y15D01*
X922Y22D01*
X921Y23D01*
X922Y27D01*
X959D01*
X972Y13D01*
X970Y8D01*
X969Y0D01*
X970Y-8D01*
X973Y-15D01*
X978Y-22D01*
X985Y-27D01*
X992Y-30D01*
X1000Y-31D01*
X1008Y-30D01*
X1015Y-27D01*
X1022Y-22D01*
X1027Y-15D01*
X1030Y-8D01*
X1031Y0D01*
X1030Y8D01*
X1027Y15D01*
X1022Y22D01*
X1015Y27D01*
X1008Y30D01*
X1000Y31D01*
X992Y30D01*
X987Y28D01*
X970Y44D01*
X967Y46D01*
X963Y47D01*
X882D01*
X878Y46D01*
X875Y44D01*
X866Y35D01*
X852D01*
X828Y59D01*
X824Y61D01*
X821Y62D01*
X750D01*
X738Y74D01*
X735Y76D01*
X731Y77D01*
X693D01*
X685Y85D01*
X682Y87D01*
X678Y88D01*
X658D01*
X641Y105D01*
X642Y110D01*
X648Y111D01*
X655Y115D01*
X657Y119D01*
X661Y119D01*
X690Y91D01*
X693Y89D01*
X697Y88D01*
X740D01*
X750Y78D01*
X753Y76D01*
X757Y75D01*
X853D01*
X871Y57D01*
X874Y55D01*
X878Y54D01*
X964D01*
X968Y55D01*
X971Y57D01*
X987Y72D01*
X992Y70D01*
X1000Y69D01*
X1008Y70D01*
X1015Y73D01*
X1022Y78D01*
X1027Y85D01*
X1030Y92D01*
X1031Y100D01*
X1030Y108D01*
X1027Y115D01*
X1022Y122D01*
X1015Y127D01*
X1008Y130D01*
X1000Y131D01*
X992Y130D01*
X985Y127D01*
X978Y122D01*
X973Y115D01*
X970Y108D01*
X969Y100D01*
X970Y92D01*
X972Y87D01*
X960Y74D01*
X923D01*
X922Y77D01*
X922Y78D01*
X927Y85D01*
X930Y92D01*
X931Y100D01*
X930Y108D01*
X927Y115D01*
X922Y122D01*
X918Y124D01*
X919Y127D01*
X919Y129D01*
X922Y131D01*
X936Y145D01*
X951D01*
X954Y140D01*
X961Y136D01*
X969Y134D01*
X977Y136D01*
X984Y140D01*
X988Y147D01*
X990Y155D01*
X988Y163D01*
X986Y166D01*
X989Y170D01*
X996D01*
X1005Y160D01*
X1004Y155D01*
X1006Y147D01*
X1010Y140D01*
X1017Y136D01*
X1025Y134D01*
X1033Y136D01*
X1040Y140D01*
X1044Y147D01*
X1046Y155D01*
X1044Y163D01*
X1040Y170D01*
X1033Y174D01*
X1025Y176D01*
X1020Y175D01*
X1007Y187D01*
X1007Y187D01*
X1008Y192D01*
X1011Y194D01*
X1016Y201D01*
X1017Y209D01*
Y221D01*
X1016Y229D01*
X1011Y236D01*
X1004Y240D01*
X996Y242D01*
X988Y240D01*
X981Y236D01*
X978Y232D01*
X974D01*
X971Y236D01*
X964Y240D01*
X956Y242D01*
X948Y240D01*
X941Y236D01*
X936Y229D01*
X935Y221D01*
Y209D01*
X936Y201D01*
X941Y194D01*
X941Y192D01*
X940Y190D01*
X935D01*
X931Y189D01*
X928Y187D01*
X922Y182D01*
X902D01*
Y199D01*
X798D01*
Y182D01*
X795D01*
X791Y181D01*
X788Y179D01*
X780Y171D01*
X776Y172D01*
X775Y176D01*
X776Y176D01*
X778Y179D01*
X779Y183D01*
Y191D01*
X791D01*
Y227D01*
X798D01*
Y209D01*
X852D01*
Y210D01*
X870D01*
Y237D01*
Y265D01*
X852D01*
Y266D01*
X798D01*
Y247D01*
X791D01*
Y249D01*
X749D01*
Y242D01*
X748Y241D01*
X744Y239D01*
X740Y235D01*
X737Y237D01*
Y277D01*
D02*
G37*
G36*
X132Y516D02*
X88D01*
Y497D01*
X132D01*
Y516D01*
D02*
G37*
G36*
X320Y546D02*
X296D01*
Y524D01*
X320D01*
Y546D01*
D02*
G37*
G36*
X700Y631D02*
X692Y630D01*
X685Y627D01*
X678Y622D01*
X673Y615D01*
X670Y608D01*
X669Y600D01*
X670Y592D01*
X673Y585D01*
X678Y578D01*
X685Y573D01*
X692Y570D01*
X700Y569D01*
X708Y570D01*
X715Y573D01*
X722Y578D01*
X727Y585D01*
X730Y592D01*
X731Y600D01*
X730Y608D01*
X727Y615D01*
X722Y622D01*
X715Y627D01*
X708Y630D01*
X700Y631D01*
D02*
G37*
G36*
X78Y516D02*
X34D01*
Y497D01*
X78D01*
Y516D01*
D02*
G37*
G36*
X400Y631D02*
X392Y630D01*
X385Y627D01*
X378Y622D01*
X373Y615D01*
X370Y608D01*
X369Y600D01*
X370Y592D01*
X373Y585D01*
X378Y578D01*
X385Y573D01*
X392Y570D01*
X400Y569D01*
X408Y570D01*
X415Y573D01*
X422Y578D01*
X427Y585D01*
X430Y592D01*
X431Y600D01*
X430Y608D01*
X427Y615D01*
X422Y622D01*
X415Y627D01*
X408Y630D01*
X400Y631D01*
D02*
G37*
G36*
X600D02*
X592Y630D01*
X585Y627D01*
X578Y622D01*
X573Y615D01*
X570Y608D01*
X569Y600D01*
X570Y592D01*
X573Y585D01*
X578Y578D01*
X585Y573D01*
X592Y570D01*
X600Y569D01*
X608Y570D01*
X615Y573D01*
X622Y578D01*
X627Y585D01*
X630Y592D01*
X631Y600D01*
X630Y608D01*
X627Y615D01*
X622Y622D01*
X615Y627D01*
X608Y630D01*
X600Y631D01*
D02*
G37*
G36*
X78Y546D02*
X34D01*
Y526D01*
X78D01*
Y546D01*
D02*
G37*
G36*
X500Y631D02*
X492Y630D01*
X485Y627D01*
X478Y622D01*
X473Y615D01*
X470Y608D01*
X469Y600D01*
X470Y592D01*
X473Y585D01*
X478Y578D01*
X485Y573D01*
X490Y571D01*
Y534D01*
X491Y530D01*
X493Y527D01*
X500Y520D01*
Y470D01*
X487Y457D01*
X485Y454D01*
X484Y450D01*
Y418D01*
X479Y415D01*
X475Y408D01*
X473Y400D01*
X474Y396D01*
X471Y392D01*
X470Y392D01*
X450Y411D01*
Y473D01*
X454Y474D01*
X455Y472D01*
X462Y468D01*
X470Y466D01*
X478Y468D01*
X485Y472D01*
X489Y479D01*
X491Y487D01*
X489Y495D01*
X485Y502D01*
X478Y506D01*
X470Y508D01*
X462Y506D01*
X455Y502D01*
X454Y500D01*
X450Y501D01*
Y507D01*
X449Y511D01*
X447Y514D01*
X435Y527D01*
X432Y529D01*
X428Y530D01*
X404D01*
Y547D01*
X355D01*
Y546D01*
X330D01*
Y519D01*
X325D01*
Y514D01*
X296D01*
Y503D01*
X295Y499D01*
X295Y499D01*
X288Y499D01*
X287Y499D01*
X285Y498D01*
X285Y498D01*
X285Y498D01*
X285Y498D01*
X282Y500D01*
X281Y501D01*
Y567D01*
X287Y572D01*
X292Y570D01*
X300Y569D01*
X308Y570D01*
X315Y573D01*
X322Y578D01*
X327Y585D01*
X330Y592D01*
X331Y600D01*
X330Y608D01*
X327Y615D01*
X322Y622D01*
X315Y627D01*
X308Y630D01*
X300Y631D01*
X292Y630D01*
X285Y627D01*
X278Y622D01*
X273Y615D01*
X270Y608D01*
X269Y600D01*
X270Y592D01*
X272Y587D01*
X264Y578D01*
X262Y575D01*
X261Y571D01*
Y564D01*
X257Y562D01*
X229Y590D01*
X230Y592D01*
X231Y600D01*
X230Y608D01*
X227Y615D01*
X222Y622D01*
X215Y627D01*
X208Y630D01*
X200Y631D01*
X192Y630D01*
X185Y627D01*
X178Y622D01*
X173Y615D01*
X170Y608D01*
X169Y600D01*
X170Y592D01*
X173Y585D01*
X178Y578D01*
X185Y573D01*
X192Y570D01*
X200Y569D01*
X208Y570D01*
X215Y573D01*
X217Y574D01*
X248Y543D01*
Y436D01*
X249Y432D01*
X251Y429D01*
X289Y391D01*
X292Y389D01*
X296Y388D01*
X323D01*
X354Y357D01*
X357Y355D01*
X361Y354D01*
X363D01*
X366Y349D01*
X373Y345D01*
X381Y343D01*
X389Y345D01*
X396Y349D01*
X400Y356D01*
X402Y364D01*
X400Y372D01*
X396Y379D01*
X390Y383D01*
X394Y389D01*
X396Y397D01*
X394Y405D01*
X390Y412D01*
X385Y415D01*
X386Y419D01*
X430D01*
Y407D01*
X431Y403D01*
X433Y400D01*
X472Y361D01*
X471Y359D01*
X473Y351D01*
X477Y344D01*
X484Y340D01*
X492Y338D01*
X500Y340D01*
X507Y344D01*
X511Y351D01*
X513Y359D01*
X511Y367D01*
X507Y374D01*
X502Y377D01*
X502Y378D01*
X503Y381D01*
X509Y385D01*
X513Y392D01*
X515Y400D01*
X513Y408D01*
X509Y415D01*
X504Y418D01*
Y446D01*
X517Y459D01*
X519Y462D01*
X520Y466D01*
Y524D01*
X519Y528D01*
X517Y531D01*
X510Y538D01*
Y571D01*
X515Y573D01*
X522Y578D01*
X527Y585D01*
X530Y592D01*
X531Y600D01*
X530Y608D01*
X527Y615D01*
X522Y622D01*
X515Y627D01*
X508Y630D01*
X500Y631D01*
D02*
G37*
G36*
X571Y331D02*
X553D01*
Y307D01*
X571D01*
Y331D01*
D02*
G37*
G36*
X599D02*
X581D01*
Y307D01*
X599D01*
Y331D01*
D02*
G37*
G36*
X571Y297D02*
X553D01*
Y272D01*
X571D01*
Y297D01*
D02*
G37*
G36*
X599D02*
X581D01*
Y272D01*
X599D01*
Y297D01*
D02*
G37*
G36*
X921Y383D02*
X898D01*
Y362D01*
X921D01*
Y383D01*
D02*
G37*
G36*
X1300Y531D02*
X1292Y530D01*
X1285Y527D01*
X1278Y522D01*
X1273Y515D01*
X1270Y508D01*
X1269Y500D01*
X1270Y492D01*
X1273Y485D01*
X1278Y478D01*
X1285Y473D01*
X1292Y470D01*
X1300Y469D01*
X1308Y470D01*
X1315Y473D01*
X1322Y478D01*
X1327Y485D01*
X1330Y492D01*
X1331Y500D01*
X1330Y508D01*
X1327Y515D01*
X1322Y522D01*
X1315Y527D01*
X1308Y530D01*
X1300Y531D01*
D02*
G37*
G36*
X568Y391D02*
X547D01*
Y357D01*
X568D01*
Y391D01*
D02*
G37*
G36*
X888Y383D02*
X866D01*
Y362D01*
X888D01*
Y383D01*
D02*
G37*
%LPD*%
G36*
X430Y489D02*
Y426D01*
X302D01*
X288Y440D01*
Y492D01*
X295Y492D01*
X295Y492D01*
Y492D01*
X404D01*
Y492D01*
X426Y492D01*
X430Y489D01*
D02*
G37*
D10*
X827Y357D02*
D03*
X893D02*
D03*
D11*
X683Y504D02*
D03*
Y480D02*
D03*
Y456D02*
D03*
X653Y309D02*
D03*
Y333D02*
D03*
Y357D02*
D03*
X770Y208D02*
D03*
Y232D02*
D03*
X885Y518D02*
D03*
Y494D02*
D03*
Y470D02*
D03*
X1071D02*
D03*
Y494D02*
D03*
Y518D02*
D03*
D16*
X875Y171D02*
D03*
Y237D02*
D03*
X710Y248D02*
D03*
Y182D02*
D03*
X825Y237D02*
D03*
Y171D02*
D03*
D25*
X971Y570D02*
X1000Y598D01*
X915Y499D02*
Y548D01*
X937Y570D02*
X971D01*
X915Y548D02*
X937Y570D01*
X910Y494D02*
X915Y499D01*
X885Y494D02*
X910D01*
X748Y496D02*
X830D01*
X852Y518D02*
X885D01*
X830Y496D02*
X852Y518D01*
X720Y468D02*
X748Y496D01*
X720Y415D02*
Y468D01*
X1000Y598D02*
Y600D01*
X764Y475D02*
X880D01*
X743Y454D02*
X764Y475D01*
X1099Y504D02*
Y599D01*
X1071Y497D02*
X1092D01*
X1099Y504D01*
X1071Y518D02*
Y558D01*
X1043Y586D02*
X1071Y558D01*
X1043Y586D02*
Y622D01*
X1071Y445D02*
Y470D01*
X1131Y566D02*
X1165Y600D01*
X1131Y469D02*
Y566D01*
X1166Y555D02*
X1225D01*
X1145Y534D02*
X1166Y555D01*
X1145Y459D02*
Y534D01*
X195Y90D02*
Y157D01*
X184Y168D02*
X195Y157D01*
X158Y168D02*
X184D01*
X1235Y192D02*
X1319D01*
X1222Y205D02*
Y229D01*
Y205D02*
X1235Y192D01*
X1270Y600D02*
X1300D01*
X1225Y555D02*
X1270Y600D01*
X1165D02*
X1188D01*
X1336Y209D02*
Y349D01*
X1319Y192D02*
X1336Y209D01*
X1305Y380D02*
X1336Y349D01*
X767Y636D02*
X1029D01*
X767Y635D02*
Y636D01*
X1029D02*
X1043Y622D01*
X634Y-33D02*
X646Y-22D01*
X365Y-33D02*
X634D01*
X343Y-11D02*
X365Y-33D01*
X819Y407D02*
X841D01*
X757Y85D02*
X857D01*
X744Y98D02*
X757Y85D01*
X697Y98D02*
X744D01*
X762Y101D02*
X899D01*
X752Y111D02*
X762Y101D01*
X718Y111D02*
X752D01*
X821Y52D02*
X848Y25D01*
X746Y52D02*
X821D01*
X731Y67D02*
X746Y52D01*
X816Y36D02*
X852Y0D01*
X740Y36D02*
X816D01*
X724Y52D02*
X740Y36D01*
X774Y113D02*
X793D01*
X755Y132D02*
X774Y113D01*
X857Y85D02*
X878Y64D01*
X691Y138D02*
X718Y111D01*
X665Y130D02*
X697Y98D01*
X654Y78D02*
X678D01*
X689Y67D02*
X731D01*
X678Y78D02*
X689Y67D01*
X687Y52D02*
X724D01*
X675Y64D02*
X687Y52D01*
X645Y64D02*
X675D01*
X720Y36D02*
X756Y0D01*
X686Y36D02*
X720D01*
X670Y52D02*
X686Y36D01*
X634Y52D02*
X670D01*
X852Y0D02*
X900D01*
X386Y179D02*
X388D01*
X402Y165D01*
X606Y103D02*
X645Y64D01*
X537Y103D02*
X606D01*
X515Y125D02*
X537Y103D01*
X596Y90D02*
X634Y52D01*
X518Y90D02*
X596D01*
X490Y118D02*
X518Y90D01*
X590Y75D02*
X626Y39D01*
X516Y75D02*
X590D01*
X475Y116D02*
X516Y75D01*
X327Y398D02*
X361Y364D01*
X296Y398D02*
X327D01*
X258Y436D02*
X296Y398D01*
X360Y412D02*
X375Y397D01*
X301Y412D02*
X360D01*
X271Y442D02*
X301Y412D01*
X361Y364D02*
X381D01*
X271Y442D02*
Y571D01*
X258Y436D02*
Y547D01*
X678Y340D02*
X712D01*
X671Y333D02*
X678Y340D01*
X653Y333D02*
X671D01*
X818Y408D02*
X819Y407D01*
X795Y421D02*
X807Y431D01*
X795Y398D02*
Y421D01*
X785Y387D02*
X795Y398D01*
X802Y446D02*
X845D01*
X773Y417D02*
X802Y446D01*
X783Y460D02*
X850D01*
X747Y424D02*
X783Y460D01*
X807Y431D02*
X834D01*
X829Y561D02*
X867D01*
X791Y523D02*
X829Y561D01*
X660Y523D02*
X791D01*
X867Y561D02*
X900Y594D01*
X800Y555D02*
Y600D01*
X782Y537D02*
X800Y555D01*
X650Y537D02*
X782D01*
X900Y594D02*
Y600D01*
X720Y415D02*
X721Y415D01*
X636Y391D02*
Y431D01*
X627Y440D02*
X636Y431D01*
X627Y440D02*
Y465D01*
X635Y391D02*
Y391D01*
X681Y453D02*
Y456D01*
X683Y443D02*
Y453D01*
X674Y434D02*
X683Y443D01*
X674Y420D02*
Y434D01*
X665Y504D02*
X681D01*
X627Y465D02*
X665Y504D01*
X585Y472D02*
X650Y537D01*
X612Y475D02*
X660Y523D01*
X1000Y180D02*
X1025Y155D01*
X564Y0D02*
X600D01*
X526Y38D02*
X564Y0D01*
X449Y38D02*
X526D01*
X402Y85D02*
X449Y38D01*
X402Y85D02*
Y165D01*
X626Y39D02*
X661D01*
X604Y128D02*
X654Y78D01*
X550Y128D02*
X604D01*
X661Y39D02*
X700Y0D01*
X260Y174D02*
Y287D01*
X206Y341D02*
X260Y287D01*
X158Y341D02*
X206D01*
X300Y0D02*
Y134D01*
X260Y174D02*
X300Y134D01*
X351Y162D02*
X379Y134D01*
X295Y162D02*
X351D01*
X275Y182D02*
X295Y162D01*
X461Y0D02*
X500D01*
X343Y-11D02*
Y7D01*
X329Y71D02*
X400Y0D01*
X379Y82D02*
X461Y0D01*
X490Y118D02*
Y144D01*
X475Y116D02*
Y177D01*
X123Y302D02*
Y458D01*
X150Y485D01*
Y550D01*
X440Y407D02*
Y507D01*
X428Y519D02*
X440Y507D01*
X379Y519D02*
X428D01*
X205Y600D02*
X258Y547D01*
X271Y571D02*
X300Y600D01*
X123Y302D02*
X127Y298D01*
X186Y384D02*
X275Y295D01*
Y182D02*
Y295D01*
X697Y382D02*
Y435D01*
X653Y309D02*
X676D01*
X649Y409D02*
X661Y397D01*
X656Y360D02*
X661Y365D01*
Y397D01*
X634Y390D02*
X635Y391D01*
X585Y455D02*
Y472D01*
X612Y418D02*
Y475D01*
X751Y619D02*
X767Y635D01*
X706Y444D02*
Y475D01*
X699Y482D02*
X706Y475D01*
X697Y435D02*
X706Y444D01*
X681Y482D02*
X699D01*
X878Y64D02*
X964D01*
X870Y25D02*
X882Y37D01*
X848Y25D02*
X870D01*
X882Y37D02*
X963D01*
X1200Y488D02*
Y500D01*
X1099Y599D02*
X1100Y600D01*
X649Y409D02*
Y453D01*
X781Y372D02*
X783D01*
X127Y298D02*
X158D01*
X200Y600D02*
X205D01*
X475Y177D02*
X491Y193D01*
X490Y144D02*
X528Y181D01*
X932Y155D02*
X969D01*
X1305Y230D02*
Y235D01*
X1200Y335D02*
X1305Y230D01*
X1200Y335D02*
Y500D01*
X963Y37D02*
X1000Y0D01*
X756D02*
X800D01*
X491Y193D02*
X492D01*
X195Y185D02*
X210Y170D01*
X195Y185D02*
Y250D01*
X190Y255D02*
X195Y250D01*
X210Y60D02*
Y170D01*
X159Y255D02*
X190D01*
X150Y45D02*
X195Y90D01*
X768Y204D02*
X770Y206D01*
X768Y183D02*
Y204D01*
X755Y170D02*
X768Y183D01*
X703Y192D02*
X726Y169D01*
X707Y195D02*
X737D01*
X741Y200D01*
Y222D01*
X751Y232D01*
X765D01*
X899Y101D02*
X900Y100D01*
X726Y138D02*
Y169D01*
X200Y50D02*
X210Y60D01*
X200Y0D02*
Y50D01*
X164Y206D02*
X165Y205D01*
X1160Y40D02*
Y125D01*
X1145Y45D02*
Y120D01*
X1100Y0D02*
X1145Y45D01*
X783Y138D02*
Y159D01*
X795Y172D01*
X1160Y40D02*
X1200Y0D01*
X795Y172D02*
X927D01*
X935Y180D01*
X1000D01*
X765Y237D02*
X819D01*
X158Y384D02*
X186D01*
X507Y276D02*
X508Y276D01*
X315Y264D02*
X486D01*
X508Y242D01*
X369Y288D02*
X381Y276D01*
X507D01*
X339Y288D02*
X369D01*
X500Y534D02*
Y600D01*
Y534D02*
X510Y524D01*
Y466D02*
Y524D01*
X612Y418D02*
X613Y417D01*
X964Y64D02*
X1000Y100D01*
X755Y132D02*
Y170D01*
X785Y372D02*
Y387D01*
X747Y376D02*
Y424D01*
X773Y416D02*
Y417D01*
X440Y407D02*
X488Y359D01*
X492D01*
X494Y450D02*
X510Y466D01*
X494Y400D02*
Y450D01*
X665Y130D02*
Y170D01*
X379Y82D02*
Y134D01*
X500Y0D02*
Y15D01*
X749Y563D02*
X751Y565D01*
Y619D01*
X329Y71D02*
Y134D01*
X1147Y138D02*
X1160Y125D01*
X1147Y138D02*
Y244D01*
X1130Y135D02*
X1145Y120D01*
X1130Y135D02*
Y230D01*
X1206Y245D02*
X1222Y229D01*
X712Y340D02*
X746Y306D01*
X1054D01*
X1130Y230D01*
X697Y382D02*
X754Y325D01*
X1066D01*
X1147Y244D01*
X818Y366D02*
Y408D01*
X793Y113D02*
X818Y138D01*
X915D01*
X932Y155D01*
X1112Y400D02*
X1200Y488D01*
X841Y407D02*
X849Y400D01*
X1097Y412D02*
X1145Y459D01*
X834Y431D02*
X854Y412D01*
X1086Y424D02*
X1131Y469D01*
X845Y446D02*
X868Y424D01*
X1061Y435D02*
X1071Y445D01*
X850Y460D02*
X874Y435D01*
X849Y400D02*
X1112D01*
X854Y412D02*
X1097D01*
X868Y424D02*
X1086D01*
X874Y435D02*
X1061D01*
D27*
X216Y411D02*
X242Y385D01*
X216Y411D02*
Y484D01*
X150Y550D02*
X216Y484D01*
X100Y600D02*
X150Y550D01*
X707Y251D02*
X710Y248D01*
X669Y251D02*
X707D01*
D28*
X1255Y325D02*
Y385D01*
D31*
X683Y468D02*
D03*
X653Y321D02*
D03*
X770Y220D02*
D03*
X885Y482D02*
D03*
X1071D02*
D03*
D32*
X1300Y500D02*
D03*
X1200D02*
D03*
X900Y100D02*
D03*
X1000D02*
D03*
X1100D02*
D03*
X1200D02*
D03*
X1300D02*
D03*
X100Y0D02*
D03*
X200D02*
D03*
X300D02*
D03*
X400D02*
D03*
X500D02*
D03*
X600D02*
D03*
X700D02*
D03*
X800D02*
D03*
X900D02*
D03*
X1000D02*
D03*
X1100D02*
D03*
X1200D02*
D03*
X1300D02*
D03*
X0Y600D02*
D03*
X100D02*
D03*
X200D02*
D03*
X300D02*
D03*
X400D02*
D03*
X500D02*
D03*
X600D02*
D03*
X700D02*
D03*
X800D02*
D03*
X900D02*
D03*
X1000D02*
D03*
X1100D02*
D03*
X1200D02*
D03*
X1300D02*
D03*
D33*
X0Y0D02*
D03*
D34*
X1255Y430D02*
D03*
D35*
X1305D02*
D03*
X1255Y380D02*
D03*
X1305D02*
D03*
X1255Y330D02*
D03*
X1305D02*
D03*
Y280D02*
D03*
X1255Y230D02*
D03*
X1305D02*
D03*
D36*
X996Y215D02*
D03*
X956D02*
D03*
D37*
X65Y344D02*
D03*
Y255D02*
D03*
X242Y385D02*
D03*
X386Y179D02*
D03*
X375Y397D02*
D03*
X381Y364D02*
D03*
X818Y408D02*
D03*
X674Y420D02*
D03*
X1025Y155D02*
D03*
X343Y7D02*
D03*
X573Y154D02*
D03*
X335Y445D02*
D03*
Y475D02*
D03*
X305Y445D02*
D03*
Y475D02*
D03*
X688Y311D02*
D03*
X743Y454D02*
D03*
X236Y193D02*
D03*
X853Y52D02*
D03*
X1254Y540D02*
D03*
X1174Y392D02*
D03*
X721Y415D02*
D03*
X747Y376D02*
D03*
X649Y453D02*
D03*
X634Y390D02*
D03*
X246Y117D02*
D03*
X969Y155D02*
D03*
X438Y116D02*
D03*
X55Y40D02*
D03*
X726Y138D02*
D03*
X691D02*
D03*
X150Y45D02*
D03*
X530Y315D02*
D03*
X508Y276D02*
D03*
Y242D02*
D03*
X528Y181D02*
D03*
X665Y170D02*
D03*
X783Y138D02*
D03*
X778Y281D02*
D03*
X755Y170D02*
D03*
X492Y193D02*
D03*
X-15Y520D02*
D03*
X315Y264D02*
D03*
X339Y288D02*
D03*
X329Y134D02*
D03*
X471Y545D02*
D03*
X524Y427D02*
D03*
X470Y487D02*
D03*
X585Y455D02*
D03*
X613Y417D02*
D03*
X669Y251D02*
D03*
X785Y372D02*
D03*
X773Y416D02*
D03*
X378Y136D02*
D03*
X494Y400D02*
D03*
X492Y359D02*
D03*
X550Y128D02*
D03*
X640Y130D02*
D03*
X646Y-22D02*
D03*
X515Y125D02*
D03*
X480Y77D02*
D03*
X365Y475D02*
D03*
Y445D02*
D03*
X749Y563D02*
D03*
X1091Y236D02*
D03*
X1206Y245D02*
D03*
X1014Y458D02*
D03*
D38*
X1034Y548D02*
D03*
D39*
X576Y302D02*
D03*
D40*
X573Y207D02*
D03*
Y396D02*
D03*
D41*
X325Y519D02*
D03*
D42*
X379D02*
D03*
D43*
X254Y81D02*
D03*
D44*
X83Y521D02*
D03*
D45*
X85Y87D02*
D03*
D46*
X158Y125D02*
D03*
Y168D02*
D03*
Y211D02*
D03*
Y255D02*
D03*
Y298D02*
D03*
Y341D02*
D03*
Y384D02*
D03*
Y428D02*
D03*
M02*
