G04 Layer_Physical_Order=2*
G04 Layer_Color=36540*
%FSLAX23Y23*%
%MOIN*%
G70*
G01*
G75*
%ADD33C,0.039*%
%ADD36R,0.047X0.047*%
%ADD37C,0.027*%
%ADD38C,0.030*%
G36*
X1338Y-39D02*
X665D01*
X662Y-34D01*
X665Y-30D01*
X667Y-22D01*
X665Y-14D01*
X660Y-7D01*
X654Y-3D01*
X646Y-1D01*
X638Y-3D01*
X635Y-4D01*
X631Y-1D01*
X631Y0D01*
X630Y8D01*
X627Y15D01*
X622Y22D01*
X615Y27D01*
X608Y30D01*
X600Y31D01*
X592Y30D01*
X585Y27D01*
X578Y22D01*
X573Y15D01*
X570Y8D01*
X569Y0D01*
X570Y-8D01*
X573Y-15D01*
X578Y-22D01*
X585Y-27D01*
X592Y-30D01*
X600Y-31D01*
X608Y-30D01*
X615Y-27D01*
X620Y-23D01*
X625Y-25D01*
X625Y-25D01*
X626Y-30D01*
X629Y-34D01*
X626Y-39D01*
X-34D01*
Y-32D01*
X-30Y-30D01*
X-29Y-30D01*
X-5D01*
Y0D01*
Y30D01*
X-29D01*
X-30Y30D01*
X-34Y32D01*
Y588D01*
X-29Y589D01*
X-27Y585D01*
X-22Y578D01*
X-15Y573D01*
X-8Y570D01*
X0Y569D01*
X8Y570D01*
X15Y573D01*
X22Y578D01*
X27Y585D01*
X30Y592D01*
X31Y600D01*
X30Y608D01*
X27Y615D01*
X22Y622D01*
X15Y627D01*
X8Y630D01*
X0Y631D01*
X-8Y630D01*
X-15Y627D01*
X-22Y622D01*
X-27Y615D01*
X-29Y611D01*
X-34Y612D01*
Y639D01*
X1338D01*
Y-39D01*
D02*
G37*
%LPC*%
G36*
X640Y151D02*
X632Y149D01*
X625Y145D01*
X621Y138D01*
X619Y130D01*
X621Y122D01*
X625Y115D01*
X632Y111D01*
X640Y109D01*
X648Y111D01*
X655Y115D01*
X659Y122D01*
X661Y130D01*
X659Y138D01*
X655Y145D01*
X648Y149D01*
X640Y151D01*
D02*
G37*
G36*
X329Y155D02*
X321Y153D01*
X314Y149D01*
X310Y142D01*
X308Y134D01*
X310Y126D01*
X314Y119D01*
X321Y115D01*
X329Y113D01*
X337Y115D01*
X344Y119D01*
X348Y126D01*
X350Y134D01*
X348Y142D01*
X344Y149D01*
X337Y153D01*
X329Y155D01*
D02*
G37*
G36*
X386Y200D02*
X378Y198D01*
X371Y194D01*
X367Y187D01*
X365Y179D01*
X367Y171D01*
X371Y164D01*
X375Y161D01*
X374Y156D01*
X370Y155D01*
X363Y151D01*
X359Y144D01*
X357Y136D01*
X359Y128D01*
X363Y121D01*
X370Y117D01*
X378Y115D01*
X386Y117D01*
X393Y121D01*
X397Y128D01*
X399Y136D01*
X397Y144D01*
X393Y151D01*
X389Y154D01*
X390Y159D01*
X394Y160D01*
X401Y164D01*
X405Y171D01*
X407Y179D01*
X405Y187D01*
X401Y194D01*
X394Y198D01*
X386Y200D01*
D02*
G37*
G36*
X1300Y131D02*
X1292Y130D01*
X1285Y127D01*
X1278Y122D01*
X1273Y115D01*
X1270Y108D01*
X1269Y100D01*
X1270Y92D01*
X1273Y85D01*
X1278Y78D01*
X1285Y73D01*
X1292Y70D01*
X1300Y69D01*
X1308Y70D01*
X1315Y73D01*
X1322Y78D01*
X1327Y85D01*
X1330Y92D01*
X1331Y100D01*
X1330Y108D01*
X1327Y115D01*
X1322Y122D01*
X1315Y127D01*
X1308Y130D01*
X1300Y131D01*
D02*
G37*
G36*
X1100D02*
X1092Y130D01*
X1085Y127D01*
X1078Y122D01*
X1073Y115D01*
X1070Y108D01*
X1069Y100D01*
X1070Y92D01*
X1073Y85D01*
X1078Y78D01*
X1085Y73D01*
X1092Y70D01*
X1100Y69D01*
X1108Y70D01*
X1115Y73D01*
X1122Y78D01*
X1127Y85D01*
X1130Y92D01*
X1131Y100D01*
X1130Y108D01*
X1127Y115D01*
X1122Y122D01*
X1115Y127D01*
X1108Y130D01*
X1100Y131D01*
D02*
G37*
G36*
X1200D02*
X1192Y130D01*
X1185Y127D01*
X1178Y122D01*
X1173Y115D01*
X1170Y108D01*
X1169Y100D01*
X1170Y92D01*
X1173Y85D01*
X1178Y78D01*
X1185Y73D01*
X1192Y70D01*
X1200Y69D01*
X1208Y70D01*
X1215Y73D01*
X1222Y78D01*
X1227Y85D01*
X1230Y92D01*
X1231Y100D01*
X1230Y108D01*
X1227Y115D01*
X1222Y122D01*
X1215Y127D01*
X1208Y130D01*
X1200Y131D01*
D02*
G37*
G36*
X1000D02*
X992Y130D01*
X985Y127D01*
X978Y122D01*
X973Y115D01*
X970Y108D01*
X969Y100D01*
X970Y92D01*
X973Y85D01*
X978Y78D01*
X985Y73D01*
X992Y70D01*
X1000Y69D01*
X1008Y70D01*
X1015Y73D01*
X1022Y78D01*
X1027Y85D01*
X1030Y92D01*
X1031Y100D01*
X1030Y108D01*
X1027Y115D01*
X1022Y122D01*
X1015Y127D01*
X1008Y130D01*
X1000Y131D01*
D02*
G37*
G36*
X969Y176D02*
X961Y174D01*
X954Y170D01*
X950Y163D01*
X948Y155D01*
X950Y147D01*
X954Y140D01*
X961Y136D01*
X969Y134D01*
X977Y136D01*
X984Y140D01*
X988Y147D01*
X990Y155D01*
X988Y163D01*
X984Y170D01*
X977Y174D01*
X969Y176D01*
D02*
G37*
G36*
X1091Y257D02*
X1083Y255D01*
X1076Y251D01*
X1072Y244D01*
X1070Y236D01*
X1072Y228D01*
X1076Y221D01*
X1083Y217D01*
X1091Y215D01*
X1099Y217D01*
X1106Y221D01*
X1110Y228D01*
X1112Y236D01*
X1110Y244D01*
X1106Y251D01*
X1099Y255D01*
X1091Y257D01*
D02*
G37*
G36*
X1250Y225D02*
X1230D01*
X1230Y223D01*
X1233Y217D01*
X1237Y212D01*
X1242Y208D01*
X1248Y205D01*
X1250Y205D01*
Y225D01*
D02*
G37*
G36*
X669Y272D02*
X661Y270D01*
X654Y266D01*
X650Y259D01*
X648Y251D01*
X650Y243D01*
X654Y236D01*
X661Y232D01*
X669Y230D01*
X677Y232D01*
X684Y236D01*
X688Y243D01*
X690Y251D01*
X688Y259D01*
X684Y266D01*
X677Y270D01*
X669Y272D01*
D02*
G37*
G36*
X508Y296D02*
X500Y295D01*
X493Y290D01*
X489Y284D01*
X487Y276D01*
X489Y268D01*
X492Y262D01*
X493Y259D01*
X492Y255D01*
X489Y250D01*
X487Y242D01*
X489Y234D01*
X493Y227D01*
X500Y223D01*
X508Y221D01*
X516Y223D01*
X523Y227D01*
X527Y234D01*
X529Y242D01*
X527Y250D01*
X524Y255D01*
X523Y259D01*
X524Y262D01*
X527Y268D01*
X529Y276D01*
X527Y284D01*
X523Y290D01*
X516Y295D01*
X508Y296D01*
D02*
G37*
G36*
X550Y149D02*
X542Y147D01*
X535Y143D01*
X534Y141D01*
X528Y141D01*
X523Y144D01*
X515Y146D01*
X507Y144D01*
X500Y140D01*
X496Y133D01*
X494Y125D01*
X496Y117D01*
X500Y110D01*
X507Y106D01*
X515Y104D01*
X523Y106D01*
X530Y110D01*
X531Y112D01*
X537Y112D01*
X542Y109D01*
X550Y107D01*
X558Y109D01*
X565Y113D01*
X569Y120D01*
X571Y128D01*
X569Y136D01*
X565Y143D01*
X558Y147D01*
X550Y149D01*
D02*
G37*
G36*
X1025Y176D02*
X1017Y174D01*
X1010Y170D01*
X1006Y163D01*
X1004Y155D01*
X1006Y147D01*
X1010Y140D01*
X1017Y136D01*
X1025Y134D01*
X1033Y136D01*
X1040Y140D01*
X1044Y147D01*
X1046Y155D01*
X1044Y163D01*
X1040Y170D01*
X1033Y174D01*
X1025Y176D01*
D02*
G37*
G36*
X492Y214D02*
X484Y212D01*
X477Y208D01*
X473Y201D01*
X471Y193D01*
X473Y185D01*
X477Y178D01*
X484Y174D01*
X492Y172D01*
X500Y174D01*
X503Y175D01*
X508Y173D01*
X513Y166D01*
X520Y162D01*
X528Y160D01*
X536Y162D01*
X542Y166D01*
X547Y173D01*
X548Y181D01*
X547Y189D01*
X542Y196D01*
X536Y200D01*
X528Y202D01*
X520Y200D01*
X517Y199D01*
X511Y201D01*
X507Y208D01*
X500Y212D01*
X492Y214D01*
D02*
G37*
G36*
X755Y191D02*
X747Y189D01*
X740Y185D01*
X736Y178D01*
X734Y170D01*
X736Y162D01*
X736Y162D01*
X736Y161D01*
X733Y158D01*
X726Y159D01*
X718Y157D01*
X711Y153D01*
X711Y153D01*
X706D01*
X706Y153D01*
X699Y157D01*
X691Y159D01*
X688Y158D01*
X686Y160D01*
X684Y163D01*
X686Y170D01*
X684Y178D01*
X680Y185D01*
X673Y189D01*
X665Y191D01*
X657Y189D01*
X650Y185D01*
X646Y178D01*
X644Y170D01*
X646Y162D01*
X650Y155D01*
X657Y151D01*
X665Y149D01*
X669Y150D01*
X670Y148D01*
X672Y145D01*
X670Y138D01*
X672Y130D01*
X677Y123D01*
X683Y119D01*
X691Y117D01*
X699Y119D01*
X706Y123D01*
X706Y123D01*
X711D01*
X711Y123D01*
X718Y119D01*
X726Y117D01*
X734Y119D01*
X741Y123D01*
X745Y130D01*
X747Y138D01*
X745Y146D01*
X745Y146D01*
X745Y147D01*
X748Y150D01*
X755Y149D01*
X760Y150D01*
X764Y146D01*
X762Y138D01*
X764Y130D01*
X768Y123D01*
X775Y119D01*
X783Y117D01*
X791Y119D01*
X798Y123D01*
X802Y130D01*
X804Y138D01*
X802Y146D01*
X798Y153D01*
X791Y157D01*
X783Y159D01*
X778Y158D01*
X774Y162D01*
X776Y170D01*
X774Y178D01*
X770Y185D01*
X763Y189D01*
X755Y191D01*
D02*
G37*
G36*
X900Y131D02*
X892Y130D01*
X885Y127D01*
X878Y122D01*
X873Y115D01*
X870Y108D01*
X869Y100D01*
X870Y92D01*
X873Y85D01*
X878Y78D01*
X885Y73D01*
X892Y70D01*
X900Y69D01*
X908Y70D01*
X915Y73D01*
X922Y78D01*
X927Y85D01*
X930Y92D01*
X931Y100D01*
X930Y108D01*
X927Y115D01*
X922Y122D01*
X915Y127D01*
X908Y130D01*
X900Y131D01*
D02*
G37*
G36*
X800Y31D02*
X792Y30D01*
X785Y27D01*
X778Y22D01*
X773Y15D01*
X770Y8D01*
X769Y0D01*
X770Y-8D01*
X773Y-15D01*
X778Y-22D01*
X785Y-27D01*
X792Y-30D01*
X800Y-31D01*
X808Y-30D01*
X815Y-27D01*
X822Y-22D01*
X827Y-15D01*
X830Y-8D01*
X831Y0D01*
X830Y8D01*
X827Y15D01*
X822Y22D01*
X815Y27D01*
X808Y30D01*
X800Y31D01*
D02*
G37*
G36*
X700D02*
X692Y30D01*
X685Y27D01*
X678Y22D01*
X673Y15D01*
X670Y8D01*
X669Y0D01*
X670Y-8D01*
X673Y-15D01*
X678Y-22D01*
X685Y-27D01*
X692Y-30D01*
X700Y-31D01*
X708Y-30D01*
X715Y-27D01*
X722Y-22D01*
X727Y-15D01*
X730Y-8D01*
X731Y0D01*
X730Y8D01*
X727Y15D01*
X722Y22D01*
X715Y27D01*
X708Y30D01*
X700Y31D01*
D02*
G37*
G36*
X1000D02*
X992Y30D01*
X985Y27D01*
X978Y22D01*
X973Y15D01*
X970Y8D01*
X969Y0D01*
X970Y-8D01*
X973Y-15D01*
X978Y-22D01*
X985Y-27D01*
X992Y-30D01*
X1000Y-31D01*
X1008Y-30D01*
X1015Y-27D01*
X1022Y-22D01*
X1027Y-15D01*
X1030Y-8D01*
X1031Y0D01*
X1030Y8D01*
X1027Y15D01*
X1022Y22D01*
X1015Y27D01*
X1008Y30D01*
X1000Y31D01*
D02*
G37*
G36*
X900D02*
X892Y30D01*
X885Y27D01*
X878Y22D01*
X873Y15D01*
X870Y8D01*
X869Y0D01*
X870Y-8D01*
X873Y-15D01*
X878Y-22D01*
X885Y-27D01*
X892Y-30D01*
X900Y-31D01*
X908Y-30D01*
X915Y-27D01*
X922Y-22D01*
X927Y-15D01*
X930Y-8D01*
X931Y0D01*
X930Y8D01*
X927Y15D01*
X922Y22D01*
X915Y27D01*
X908Y30D01*
X900Y31D01*
D02*
G37*
G36*
X200D02*
X192Y30D01*
X185Y27D01*
X178Y22D01*
X173Y15D01*
X170Y8D01*
X169Y0D01*
X170Y-8D01*
X173Y-15D01*
X178Y-22D01*
X185Y-27D01*
X192Y-30D01*
X200Y-31D01*
X208Y-30D01*
X215Y-27D01*
X222Y-22D01*
X227Y-15D01*
X230Y-8D01*
X231Y0D01*
X230Y8D01*
X227Y15D01*
X222Y22D01*
X215Y27D01*
X208Y30D01*
X200Y31D01*
D02*
G37*
G36*
X100D02*
X92Y30D01*
X85Y27D01*
X78Y22D01*
X73Y15D01*
X70Y8D01*
X69Y0D01*
X70Y-8D01*
X73Y-15D01*
X78Y-22D01*
X85Y-27D01*
X92Y-30D01*
X100Y-31D01*
X108Y-30D01*
X115Y-27D01*
X122Y-22D01*
X127Y-15D01*
X130Y-8D01*
X131Y0D01*
X130Y8D01*
X127Y15D01*
X122Y22D01*
X115Y27D01*
X108Y30D01*
X100Y31D01*
D02*
G37*
G36*
X500D02*
X492Y30D01*
X485Y27D01*
X478Y22D01*
X473Y15D01*
X470Y8D01*
X469Y0D01*
X470Y-8D01*
X473Y-15D01*
X478Y-22D01*
X485Y-27D01*
X492Y-30D01*
X500Y-31D01*
X508Y-30D01*
X515Y-27D01*
X522Y-22D01*
X527Y-15D01*
X530Y-8D01*
X531Y0D01*
X530Y8D01*
X527Y15D01*
X522Y22D01*
X515Y27D01*
X508Y30D01*
X500Y31D01*
D02*
G37*
G36*
X400D02*
X392Y30D01*
X385Y27D01*
X378Y22D01*
X373Y15D01*
X370Y8D01*
X369Y0D01*
X370Y-8D01*
X373Y-15D01*
X378Y-22D01*
X385Y-27D01*
X392Y-30D01*
X400Y-31D01*
X408Y-30D01*
X415Y-27D01*
X422Y-22D01*
X427Y-15D01*
X430Y-8D01*
X431Y0D01*
X430Y8D01*
X427Y15D01*
X422Y22D01*
X415Y27D01*
X408Y30D01*
X400Y31D01*
D02*
G37*
G36*
X5Y30D02*
Y5D01*
X30D01*
Y30D01*
X5D01*
D02*
G37*
G36*
X300Y31D02*
X292Y30D01*
X285Y27D01*
X278Y22D01*
X273Y15D01*
X270Y8D01*
X269Y0D01*
X270Y-8D01*
X273Y-15D01*
X278Y-22D01*
X285Y-27D01*
X292Y-30D01*
X300Y-31D01*
X308Y-30D01*
X315Y-27D01*
X322Y-22D01*
X327Y-15D01*
X328Y-12D01*
X333Y-11D01*
X335Y-12D01*
X343Y-14D01*
X351Y-12D01*
X358Y-8D01*
X362Y-1D01*
X364Y7D01*
X362Y15D01*
X358Y22D01*
X351Y26D01*
X343Y28D01*
X335Y26D01*
X328Y22D01*
X328Y21D01*
X323Y21D01*
X322Y22D01*
X315Y27D01*
X308Y30D01*
X300Y31D01*
D02*
G37*
G36*
X480Y98D02*
X472Y96D01*
X465Y92D01*
X461Y85D01*
X459Y77D01*
X461Y69D01*
X465Y62D01*
X472Y58D01*
X480Y56D01*
X488Y58D01*
X495Y62D01*
X499Y69D01*
X501Y77D01*
X499Y85D01*
X495Y92D01*
X488Y96D01*
X480Y98D01*
D02*
G37*
G36*
X150Y66D02*
X142Y64D01*
X135Y60D01*
X131Y53D01*
X129Y45D01*
X131Y37D01*
X135Y30D01*
X142Y26D01*
X150Y24D01*
X158Y26D01*
X165Y30D01*
X169Y37D01*
X171Y45D01*
X169Y53D01*
X165Y60D01*
X158Y64D01*
X150Y66D01*
D02*
G37*
G36*
X1200Y31D02*
X1192Y30D01*
X1185Y27D01*
X1178Y22D01*
X1173Y15D01*
X1170Y8D01*
X1169Y0D01*
X1170Y-8D01*
X1173Y-15D01*
X1178Y-22D01*
X1185Y-27D01*
X1192Y-30D01*
X1200Y-31D01*
X1208Y-30D01*
X1215Y-27D01*
X1222Y-22D01*
X1227Y-15D01*
X1230Y-8D01*
X1231Y0D01*
X1230Y8D01*
X1227Y15D01*
X1222Y22D01*
X1215Y27D01*
X1208Y30D01*
X1200Y31D01*
D02*
G37*
G36*
X1100D02*
X1092Y30D01*
X1085Y27D01*
X1078Y22D01*
X1073Y15D01*
X1070Y8D01*
X1069Y0D01*
X1070Y-8D01*
X1073Y-15D01*
X1078Y-22D01*
X1085Y-27D01*
X1092Y-30D01*
X1100Y-31D01*
X1108Y-30D01*
X1115Y-27D01*
X1122Y-22D01*
X1127Y-15D01*
X1130Y-8D01*
X1131Y0D01*
X1130Y8D01*
X1127Y15D01*
X1122Y22D01*
X1115Y27D01*
X1108Y30D01*
X1100Y31D01*
D02*
G37*
G36*
X30Y-5D02*
X5D01*
Y-30D01*
X30D01*
Y-5D01*
D02*
G37*
G36*
X1300Y31D02*
X1292Y30D01*
X1285Y27D01*
X1278Y22D01*
X1273Y15D01*
X1270Y8D01*
X1269Y0D01*
X1270Y-8D01*
X1273Y-15D01*
X1278Y-22D01*
X1285Y-27D01*
X1292Y-30D01*
X1300Y-31D01*
X1308Y-30D01*
X1315Y-27D01*
X1322Y-22D01*
X1327Y-15D01*
X1330Y-8D01*
X1331Y0D01*
X1330Y8D01*
X1327Y15D01*
X1322Y22D01*
X1315Y27D01*
X1308Y30D01*
X1300Y31D01*
D02*
G37*
G36*
X300Y631D02*
X292Y630D01*
X285Y627D01*
X278Y622D01*
X273Y615D01*
X270Y608D01*
X269Y600D01*
X270Y592D01*
X273Y585D01*
X278Y578D01*
X285Y573D01*
X292Y570D01*
X300Y569D01*
X308Y570D01*
X315Y573D01*
X322Y578D01*
X327Y585D01*
X330Y592D01*
X331Y600D01*
X330Y608D01*
X327Y615D01*
X322Y622D01*
X315Y627D01*
X308Y630D01*
X300Y631D01*
D02*
G37*
G36*
X200D02*
X192Y630D01*
X185Y627D01*
X178Y622D01*
X173Y615D01*
X170Y608D01*
X169Y600D01*
X170Y592D01*
X173Y585D01*
X178Y578D01*
X185Y573D01*
X192Y570D01*
X200Y569D01*
X208Y570D01*
X215Y573D01*
X222Y578D01*
X227Y585D01*
X230Y592D01*
X231Y600D01*
X230Y608D01*
X227Y615D01*
X222Y622D01*
X215Y627D01*
X208Y630D01*
X200Y631D01*
D02*
G37*
G36*
X500D02*
X492Y630D01*
X485Y627D01*
X478Y622D01*
X473Y615D01*
X470Y608D01*
X469Y600D01*
X470Y592D01*
X473Y585D01*
X478Y578D01*
X485Y573D01*
X492Y570D01*
X500Y569D01*
X508Y570D01*
X515Y573D01*
X522Y578D01*
X527Y585D01*
X530Y592D01*
X531Y600D01*
X530Y608D01*
X527Y615D01*
X522Y622D01*
X515Y627D01*
X508Y630D01*
X500Y631D01*
D02*
G37*
G36*
X400D02*
X392Y630D01*
X385Y627D01*
X378Y622D01*
X373Y615D01*
X370Y608D01*
X369Y600D01*
X370Y592D01*
X373Y585D01*
X378Y578D01*
X385Y573D01*
X392Y570D01*
X400Y569D01*
X408Y570D01*
X415Y573D01*
X422Y578D01*
X427Y585D01*
X430Y592D01*
X431Y600D01*
X430Y608D01*
X427Y615D01*
X422Y622D01*
X415Y627D01*
X408Y630D01*
X400Y631D01*
D02*
G37*
G36*
X365Y496D02*
X357Y494D01*
X350Y490D01*
X350D01*
X343Y494D01*
X335Y496D01*
X327Y494D01*
X320Y490D01*
X320D01*
X313Y494D01*
X305Y496D01*
X297Y494D01*
X290Y490D01*
X286Y483D01*
X284Y475D01*
X286Y467D01*
X290Y460D01*
Y460D01*
X286Y453D01*
X284Y445D01*
X286Y437D01*
X290Y430D01*
X297Y426D01*
X305Y424D01*
X313Y426D01*
X320Y430D01*
X320D01*
X327Y426D01*
X335Y424D01*
X343Y426D01*
X350Y430D01*
X350D01*
X357Y426D01*
X365Y424D01*
X373Y426D01*
X380Y430D01*
X384Y437D01*
X386Y445D01*
X384Y453D01*
X380Y460D01*
Y460D01*
X384Y467D01*
X386Y475D01*
X384Y483D01*
X380Y490D01*
X373Y494D01*
X365Y496D01*
D02*
G37*
G36*
X1300Y531D02*
X1292Y530D01*
X1285Y527D01*
X1278Y522D01*
X1273Y515D01*
X1270Y508D01*
X1269Y500D01*
X1270Y492D01*
X1273Y485D01*
X1278Y478D01*
X1285Y473D01*
X1292Y470D01*
X1300Y469D01*
X1308Y470D01*
X1315Y473D01*
X1322Y478D01*
X1327Y485D01*
X1330Y492D01*
X1331Y500D01*
X1330Y508D01*
X1327Y515D01*
X1322Y522D01*
X1315Y527D01*
X1308Y530D01*
X1300Y531D01*
D02*
G37*
G36*
X100Y631D02*
X92Y630D01*
X85Y627D01*
X78Y622D01*
X73Y615D01*
X70Y608D01*
X69Y600D01*
X70Y592D01*
X73Y585D01*
X78Y578D01*
X85Y573D01*
X92Y570D01*
X100Y569D01*
X108Y570D01*
X115Y573D01*
X122Y578D01*
X127Y585D01*
X130Y592D01*
X131Y600D01*
X130Y608D01*
X127Y615D01*
X122Y622D01*
X115Y627D01*
X108Y630D01*
X100Y631D01*
D02*
G37*
G36*
X749Y584D02*
X741Y582D01*
X734Y578D01*
X730Y571D01*
X728Y563D01*
X730Y555D01*
X734Y548D01*
X741Y544D01*
X749Y542D01*
X757Y544D01*
X764Y548D01*
X768Y555D01*
X770Y563D01*
X768Y571D01*
X764Y578D01*
X757Y582D01*
X749Y584D01*
D02*
G37*
G36*
X1100Y631D02*
X1092Y630D01*
X1085Y627D01*
X1078Y622D01*
X1073Y615D01*
X1070Y608D01*
X1069Y600D01*
X1070Y592D01*
X1073Y585D01*
X1078Y578D01*
X1085Y573D01*
X1092Y570D01*
X1100Y569D01*
X1108Y570D01*
X1115Y573D01*
X1122Y578D01*
X1127Y585D01*
X1130Y592D01*
X1131Y600D01*
X1130Y608D01*
X1127Y615D01*
X1122Y622D01*
X1115Y627D01*
X1108Y630D01*
X1100Y631D01*
D02*
G37*
G36*
X1000D02*
X992Y630D01*
X985Y627D01*
X978Y622D01*
X973Y615D01*
X970Y608D01*
X969Y600D01*
X970Y592D01*
X973Y585D01*
X978Y578D01*
X985Y573D01*
X992Y570D01*
X1000Y569D01*
X1008Y570D01*
X1015Y573D01*
X1022Y578D01*
X1027Y585D01*
X1030Y592D01*
X1031Y600D01*
X1030Y608D01*
X1027Y615D01*
X1022Y622D01*
X1015Y627D01*
X1008Y630D01*
X1000Y631D01*
D02*
G37*
G36*
X1300D02*
X1292Y630D01*
X1285Y627D01*
X1278Y622D01*
X1273Y615D01*
X1270Y608D01*
X1269Y600D01*
X1270Y592D01*
X1273Y585D01*
X1278Y578D01*
X1285Y573D01*
X1292Y570D01*
X1300Y569D01*
X1308Y570D01*
X1315Y573D01*
X1322Y578D01*
X1327Y585D01*
X1330Y592D01*
X1331Y600D01*
X1330Y608D01*
X1327Y615D01*
X1322Y622D01*
X1315Y627D01*
X1308Y630D01*
X1300Y631D01*
D02*
G37*
G36*
X1200D02*
X1192Y630D01*
X1185Y627D01*
X1178Y622D01*
X1173Y615D01*
X1170Y608D01*
X1169Y600D01*
X1170Y592D01*
X1173Y585D01*
X1178Y578D01*
X1185Y573D01*
X1192Y570D01*
X1200Y569D01*
X1208Y570D01*
X1215Y573D01*
X1222Y578D01*
X1227Y585D01*
X1230Y592D01*
X1231Y600D01*
X1230Y608D01*
X1227Y615D01*
X1222Y622D01*
X1215Y627D01*
X1208Y630D01*
X1200Y631D01*
D02*
G37*
G36*
X700D02*
X692Y630D01*
X685Y627D01*
X678Y622D01*
X673Y615D01*
X670Y608D01*
X669Y600D01*
X670Y592D01*
X673Y585D01*
X678Y578D01*
X685Y573D01*
X692Y570D01*
X700Y569D01*
X708Y570D01*
X715Y573D01*
X722Y578D01*
X727Y585D01*
X730Y592D01*
X731Y600D01*
X730Y608D01*
X727Y615D01*
X722Y622D01*
X715Y627D01*
X708Y630D01*
X700Y631D01*
D02*
G37*
G36*
X600D02*
X592Y630D01*
X585Y627D01*
X578Y622D01*
X573Y615D01*
X570Y608D01*
X569Y600D01*
X570Y592D01*
X573Y585D01*
X578Y578D01*
X585Y573D01*
X592Y570D01*
X600Y569D01*
X608Y570D01*
X615Y573D01*
X622Y578D01*
X627Y585D01*
X630Y592D01*
X631Y600D01*
X630Y608D01*
X627Y615D01*
X622Y622D01*
X615Y627D01*
X608Y630D01*
X600Y631D01*
D02*
G37*
G36*
X900D02*
X892Y630D01*
X885Y627D01*
X878Y622D01*
X873Y615D01*
X870Y608D01*
X869Y600D01*
X870Y592D01*
X873Y585D01*
X878Y578D01*
X885Y573D01*
X892Y570D01*
X900Y569D01*
X908Y570D01*
X915Y573D01*
X922Y578D01*
X927Y585D01*
X930Y592D01*
X931Y600D01*
X930Y608D01*
X927Y615D01*
X922Y622D01*
X915Y627D01*
X908Y630D01*
X900Y631D01*
D02*
G37*
G36*
X800D02*
X792Y630D01*
X785Y627D01*
X778Y622D01*
X773Y615D01*
X770Y608D01*
X769Y600D01*
X770Y592D01*
X773Y585D01*
X778Y578D01*
X785Y573D01*
X792Y570D01*
X800Y569D01*
X808Y570D01*
X815Y573D01*
X822Y578D01*
X827Y585D01*
X830Y592D01*
X831Y600D01*
X830Y608D01*
X827Y615D01*
X822Y622D01*
X815Y627D01*
X808Y630D01*
X800Y631D01*
D02*
G37*
G36*
X1200Y531D02*
X1192Y530D01*
X1185Y527D01*
X1178Y522D01*
X1173Y515D01*
X1170Y508D01*
X1169Y500D01*
X1170Y492D01*
X1173Y485D01*
X1178Y478D01*
X1185Y473D01*
X1192Y470D01*
X1200Y469D01*
X1208Y470D01*
X1215Y473D01*
X1222Y478D01*
X1227Y485D01*
X1230Y492D01*
X1231Y500D01*
X1230Y508D01*
X1227Y515D01*
X1222Y522D01*
X1215Y527D01*
X1208Y530D01*
X1200Y531D01*
D02*
G37*
G36*
X494Y421D02*
X486Y419D01*
X479Y415D01*
X475Y408D01*
X473Y400D01*
X475Y392D01*
X479Y385D01*
X483Y383D01*
X483Y382D01*
X482Y377D01*
X477Y374D01*
X473Y367D01*
X471Y359D01*
X473Y351D01*
X477Y344D01*
X484Y340D01*
X492Y338D01*
X500Y340D01*
X507Y344D01*
X511Y351D01*
X513Y359D01*
X511Y367D01*
X507Y374D01*
X503Y376D01*
X503Y377D01*
X504Y382D01*
X509Y385D01*
X513Y392D01*
X515Y400D01*
X513Y408D01*
X509Y415D01*
X502Y419D01*
X494Y421D01*
D02*
G37*
G36*
X1250Y325D02*
X1230D01*
X1230Y323D01*
X1233Y317D01*
X1237Y312D01*
X1242Y308D01*
X1248Y305D01*
X1250Y305D01*
Y325D01*
D02*
G37*
G36*
X242Y406D02*
X234Y404D01*
X227Y400D01*
X223Y393D01*
X221Y385D01*
X223Y377D01*
X227Y370D01*
X234Y366D01*
X242Y364D01*
X250Y366D01*
X257Y370D01*
X261Y377D01*
X263Y385D01*
X261Y393D01*
X257Y400D01*
X250Y404D01*
X242Y406D01*
D02*
G37*
G36*
X375Y418D02*
X367Y416D01*
X360Y412D01*
X356Y405D01*
X354Y397D01*
X356Y389D01*
X360Y382D01*
X366Y378D01*
X362Y372D01*
X360Y364D01*
X362Y356D01*
X366Y349D01*
X373Y345D01*
X381Y343D01*
X389Y345D01*
X396Y349D01*
X400Y356D01*
X402Y364D01*
X400Y372D01*
X396Y379D01*
X390Y383D01*
X394Y389D01*
X396Y397D01*
X394Y405D01*
X390Y412D01*
X383Y416D01*
X375Y418D01*
D02*
G37*
G36*
X1206Y266D02*
X1198Y264D01*
X1191Y260D01*
X1187Y253D01*
X1185Y245D01*
X1187Y237D01*
X1191Y230D01*
X1198Y226D01*
X1206Y224D01*
X1214Y226D01*
X1221Y230D01*
X1224Y235D01*
X1225Y237D01*
X1230Y236D01*
X1230Y235D01*
X1250D01*
Y255D01*
X1248Y255D01*
X1242Y252D01*
X1237Y248D01*
X1233Y243D01*
X1231Y240D01*
X1231Y238D01*
X1226Y240D01*
X1226Y242D01*
X1227Y245D01*
X1225Y253D01*
X1221Y260D01*
X1214Y264D01*
X1206Y266D01*
D02*
G37*
G36*
X998Y242D02*
X989Y240D01*
X981Y235D01*
X979Y232D01*
X973D01*
X971Y235D01*
X963Y240D01*
X954Y242D01*
X945Y240D01*
X938Y235D01*
X933Y228D01*
X931Y219D01*
Y211D01*
X933Y202D01*
X938Y195D01*
X945Y190D01*
X954Y188D01*
X963Y190D01*
X971Y195D01*
X973Y198D01*
X979D01*
X981Y195D01*
X989Y190D01*
X998Y188D01*
X1007Y190D01*
X1014Y195D01*
X1019Y202D01*
X1021Y211D01*
Y219D01*
X1019Y228D01*
X1014Y235D01*
X1007Y240D01*
X998Y242D01*
D02*
G37*
G36*
X688Y332D02*
X680Y330D01*
X673Y326D01*
X669Y319D01*
X667Y311D01*
X669Y303D01*
X673Y296D01*
X680Y292D01*
X688Y290D01*
X696Y292D01*
X703Y296D01*
X707Y303D01*
X709Y311D01*
X707Y319D01*
X703Y326D01*
X696Y330D01*
X688Y332D01*
D02*
G37*
G36*
X339Y309D02*
X331Y307D01*
X324Y303D01*
X320Y296D01*
X318Y289D01*
X316Y287D01*
X314Y285D01*
X307Y283D01*
X300Y279D01*
X296Y272D01*
X294Y264D01*
X296Y256D01*
X300Y249D01*
X307Y245D01*
X315Y243D01*
X323Y245D01*
X330Y249D01*
X334Y256D01*
X336Y263D01*
X338Y265D01*
X340Y267D01*
X347Y269D01*
X354Y273D01*
X358Y280D01*
X360Y288D01*
X358Y296D01*
X354Y303D01*
X347Y307D01*
X339Y309D01*
D02*
G37*
G36*
X1017Y479D02*
X1009Y477D01*
X1002Y473D01*
X998Y466D01*
X996Y458D01*
X998Y450D01*
X1002Y443D01*
X1009Y439D01*
X1017Y437D01*
X1025Y439D01*
X1032Y443D01*
X1036Y450D01*
X1038Y458D01*
X1036Y466D01*
X1032Y473D01*
X1025Y477D01*
X1017Y479D01*
D02*
G37*
G36*
X743Y475D02*
X735Y473D01*
X728Y469D01*
X724Y462D01*
X722Y454D01*
X724Y446D01*
X728Y440D01*
X727Y438D01*
X726Y435D01*
X721Y436D01*
X713Y434D01*
X706Y430D01*
X702Y423D01*
X700Y415D01*
X702Y407D01*
X706Y400D01*
X713Y396D01*
X721Y394D01*
X729Y396D01*
X736Y400D01*
X740Y407D01*
X742Y415D01*
X740Y423D01*
X736Y429D01*
X737Y431D01*
X738Y434D01*
X743Y433D01*
X751Y435D01*
X758Y439D01*
X762Y446D01*
X764Y454D01*
X762Y462D01*
X758Y469D01*
X751Y473D01*
X743Y475D01*
D02*
G37*
G36*
X470Y508D02*
X462Y506D01*
X455Y502D01*
X451Y495D01*
X449Y487D01*
X451Y479D01*
X455Y472D01*
X462Y468D01*
X470Y466D01*
X478Y468D01*
X485Y472D01*
X489Y479D01*
X491Y487D01*
X489Y495D01*
X485Y502D01*
X478Y506D01*
X470Y508D01*
D02*
G37*
G36*
X1305Y457D02*
X1298Y456D01*
X1292Y453D01*
X1287Y450D01*
X1284Y450D01*
X1282Y452D01*
Y457D01*
X1228D01*
Y403D01*
X1235D01*
X1237Y398D01*
X1233Y393D01*
X1230Y387D01*
X1230Y385D01*
X1255D01*
Y375D01*
X1230D01*
X1230Y373D01*
X1233Y367D01*
X1237Y362D01*
X1242Y358D01*
X1242Y355D01*
Y355D01*
X1242Y352D01*
X1237Y348D01*
X1233Y343D01*
X1230Y337D01*
X1230Y335D01*
X1255D01*
Y330D01*
X1260D01*
Y305D01*
X1262Y305D01*
X1268Y308D01*
X1273Y312D01*
X1277Y316D01*
X1280Y316D01*
X1280Y316D01*
X1282Y316D01*
X1286Y311D01*
X1290Y308D01*
X1290Y307D01*
Y303D01*
X1290Y302D01*
X1286Y299D01*
X1282Y293D01*
X1279Y287D01*
X1278Y280D01*
X1279Y273D01*
X1282Y267D01*
X1286Y261D01*
X1290Y258D01*
X1290Y257D01*
Y253D01*
X1290Y252D01*
X1286Y249D01*
X1282Y244D01*
X1280Y244D01*
X1280Y244D01*
X1277Y244D01*
X1273Y248D01*
X1268Y252D01*
X1262Y255D01*
X1260Y255D01*
Y230D01*
Y205D01*
X1262Y205D01*
X1268Y208D01*
X1273Y212D01*
X1277Y216D01*
X1280Y216D01*
X1280Y216D01*
X1282Y216D01*
X1286Y211D01*
X1292Y207D01*
X1298Y204D01*
X1305Y203D01*
X1312Y204D01*
X1318Y207D01*
X1324Y211D01*
X1328Y217D01*
X1331Y223D01*
X1332Y230D01*
X1331Y237D01*
X1328Y243D01*
X1324Y249D01*
X1320Y252D01*
X1320Y253D01*
Y257D01*
X1320Y258D01*
X1324Y261D01*
X1328Y267D01*
X1331Y273D01*
X1332Y280D01*
X1331Y287D01*
X1328Y293D01*
X1324Y299D01*
X1320Y302D01*
X1320Y303D01*
Y307D01*
X1320Y308D01*
X1324Y311D01*
X1328Y317D01*
X1331Y323D01*
X1332Y330D01*
X1331Y337D01*
X1328Y343D01*
X1324Y349D01*
X1320Y352D01*
X1320Y353D01*
Y357D01*
X1320Y358D01*
X1324Y361D01*
X1328Y367D01*
X1331Y373D01*
X1332Y380D01*
X1331Y387D01*
X1328Y393D01*
X1324Y399D01*
X1320Y402D01*
X1320Y403D01*
Y407D01*
X1320Y408D01*
X1324Y411D01*
X1328Y417D01*
X1331Y423D01*
X1332Y430D01*
X1331Y437D01*
X1328Y443D01*
X1324Y449D01*
X1318Y453D01*
X1312Y456D01*
X1305Y457D01*
D02*
G37*
G36*
X773Y437D02*
X765Y435D01*
X758Y431D01*
X754Y424D01*
X752Y416D01*
X754Y408D01*
X758Y401D01*
X765Y397D01*
X773Y395D01*
X774Y395D01*
X776Y391D01*
X770Y387D01*
X764Y387D01*
X762Y391D01*
X755Y395D01*
X747Y397D01*
X739Y395D01*
X732Y391D01*
X728Y384D01*
X726Y376D01*
X728Y368D01*
X732Y361D01*
X739Y357D01*
X747Y355D01*
X755Y357D01*
X762Y361D01*
X768Y361D01*
X770Y357D01*
X777Y353D01*
X785Y351D01*
X793Y353D01*
X800Y357D01*
X804Y364D01*
X806Y372D01*
X804Y380D01*
X800Y387D01*
X793Y391D01*
X785Y393D01*
X784Y393D01*
X782Y397D01*
X788Y401D01*
X792Y408D01*
X792Y408D01*
X797Y408D01*
X799Y400D01*
X803Y393D01*
X810Y389D01*
X818Y387D01*
X826Y389D01*
X833Y393D01*
X837Y400D01*
X839Y408D01*
X837Y416D01*
X833Y423D01*
X826Y427D01*
X818Y429D01*
X810Y427D01*
X803Y423D01*
X799Y416D01*
X799Y416D01*
X794Y416D01*
X792Y424D01*
X788Y431D01*
X781Y435D01*
X773Y437D01*
D02*
G37*
G36*
X613Y438D02*
X605Y436D01*
X598Y432D01*
X594Y425D01*
X592Y417D01*
X594Y409D01*
X598Y402D01*
X605Y398D01*
X613Y396D01*
X614Y395D01*
X613Y390D01*
X615Y382D01*
X619Y375D01*
X626Y371D01*
X634Y369D01*
X642Y371D01*
X649Y375D01*
X653Y382D01*
X655Y390D01*
X653Y398D01*
X649Y405D01*
X642Y409D01*
X634Y411D01*
X633Y412D01*
X634Y417D01*
X632Y425D01*
X628Y432D01*
X621Y436D01*
X613Y438D01*
D02*
G37*
G36*
X585Y476D02*
X577Y474D01*
X570Y470D01*
X566Y463D01*
X564Y455D01*
X566Y447D01*
X570Y440D01*
X577Y436D01*
X585Y434D01*
X593Y436D01*
X600Y440D01*
X604Y447D01*
X606Y455D01*
X604Y463D01*
X600Y470D01*
X593Y474D01*
X585Y476D01*
D02*
G37*
G36*
X649Y474D02*
X641Y472D01*
X634Y468D01*
X630Y461D01*
X628Y453D01*
X630Y445D01*
X634Y438D01*
X641Y434D01*
X649Y432D01*
X652Y433D01*
X655Y428D01*
X655Y428D01*
X653Y420D01*
X655Y412D01*
X659Y405D01*
X666Y401D01*
X674Y399D01*
X682Y401D01*
X689Y405D01*
X693Y412D01*
X695Y420D01*
X693Y428D01*
X689Y435D01*
X682Y439D01*
X674Y441D01*
X671Y440D01*
X668Y445D01*
X668Y445D01*
X670Y453D01*
X668Y461D01*
X664Y468D01*
X657Y472D01*
X649Y474D01*
D02*
G37*
%LPD*%
D33*
X1255Y230D02*
D03*
Y330D02*
D03*
Y380D02*
D03*
D36*
X0Y0D02*
D03*
D37*
X524Y427D02*
D03*
X471Y545D02*
D03*
X-15Y520D02*
D03*
X778Y281D02*
D03*
X530Y315D02*
D03*
X55Y40D02*
D03*
X438Y116D02*
D03*
X246Y117D02*
D03*
X1174Y392D02*
D03*
X1254Y540D02*
D03*
X853Y52D02*
D03*
X236Y193D02*
D03*
X573Y154D02*
D03*
X65Y255D02*
D03*
Y344D02*
D03*
D38*
X1036Y548D02*
D03*
M02*
