M48
;Layer_Color=9474304
;FILE_FORMAT=2:4
INCH
;TYPE=PLATED
T1F00S00C0.0130
T2F00S00C0.0150
T3F00S00C0.0157
T4F00S00C0.0236
T5F00S00C0.0354
%
T01
X000550Y000400
X001500Y000450
X002460Y001170
X002360Y001930
X003150Y002640
X003390Y002880
X003810Y003640
X003750Y003970
X003650Y004450
X003350
Y004750
X003050
Y004450
X003650Y004750
X004700Y004870
X004710Y005450
X004940Y004000
X004920Y003590
X005300Y003150
X005079Y002756
Y002419
X004921Y001929
X005276Y001811
X005150Y001250
X005500Y001280
X005730Y001540
X006400Y001300
X006913Y001380
X007260
X007830
X007550Y001700
X006648
X006690Y002510
X006880Y003110
X007780Y002810
X007850Y003720
X007470Y003760
X007210Y004150
X006740Y004200
X006490Y004530
X005850Y004550
X006130Y004170
X006340Y003900
X005240Y004270
X007430Y004540
X007730Y004160
X008180Y004080
X007490Y005630
X010140Y004580
X011740Y003920
X012060Y002451
X010910Y002360
X010250Y001550
X009690
X008530Y000520
X006456Y-000218
X004800Y000770
X004380Y001160
X003780Y001360
X003860Y001790
X003290Y001340
X003430Y000070
X002420Y003850
X000650Y003440
Y002550
X012540Y005400
X-000150Y005200
T02
X010340Y005480
T03
X009560Y002150
X009960
T04
X012550Y002300
X013050
Y002800
Y003300
Y003800
Y004300
X012550
Y003800
Y003300
T05
X000000Y000000
X001000
X002000
X003000
X004000
X005000
X006000
X007000
X008000
X009000
Y001000
X010000
X011000
X012000
X013000
Y000000
X012000
X011000
X010000
Y006000
X009000
X008000
X007000
X006000
X005000
X004000
X003000
X002000
X001000
X000000
X011000
X012000
Y005000
X013000
Y006000
M30
