G04 Layer_Color=128*
%FSLAX23Y23*%
%MOIN*%
G70*
G01*
G75*
%ADD10R,0.043X0.039*%
%ADD11R,0.028X0.020*%
%ADD16R,0.039X0.043*%
%ADD31R,0.006X0.012*%
%ADD39R,0.035X0.047*%
%ADD40R,0.041X0.067*%
%ADD41R,0.047X0.041*%
%ADD42R,0.035X0.041*%
%ADD43R,0.049X0.035*%
%ADD44R,0.085X0.037*%
%ADD45R,0.091X0.047*%
%ADD46R,0.037X0.028*%
D10*
X827Y357D02*
D03*
X893D02*
D03*
D11*
X683Y504D02*
D03*
Y480D02*
D03*
Y456D02*
D03*
X653Y309D02*
D03*
Y333D02*
D03*
Y357D02*
D03*
X770Y208D02*
D03*
Y232D02*
D03*
X885Y518D02*
D03*
Y494D02*
D03*
Y470D02*
D03*
X1071D02*
D03*
Y494D02*
D03*
Y518D02*
D03*
D16*
X875Y171D02*
D03*
Y237D02*
D03*
X710Y248D02*
D03*
Y182D02*
D03*
X825Y237D02*
D03*
Y171D02*
D03*
D31*
X683Y468D02*
D03*
X653Y321D02*
D03*
X770Y220D02*
D03*
X885Y482D02*
D03*
X1071D02*
D03*
D39*
X576Y302D02*
D03*
D40*
X573Y207D02*
D03*
Y396D02*
D03*
D41*
X325Y519D02*
D03*
D42*
X379D02*
D03*
D43*
X254Y81D02*
D03*
D44*
X83Y521D02*
D03*
D45*
X85Y87D02*
D03*
D46*
X158Y125D02*
D03*
Y168D02*
D03*
Y211D02*
D03*
Y255D02*
D03*
Y298D02*
D03*
Y341D02*
D03*
Y384D02*
D03*
Y428D02*
D03*
M02*
