G04 Layer_Physical_Order=3*
G04 Layer_Color=16440176*
%FSLAX23Y23*%
%MOIN*%
G70*
G01*
G75*
%ADD25C,0.006*%
%ADD26C,0.012*%
%ADD32C,0.047*%
%ADD34R,0.039X0.039*%
%ADD37C,0.027*%
G36*
X1338Y-39D02*
X665D01*
X662Y-34D01*
X665Y-30D01*
X667Y-22D01*
X665Y-14D01*
X660Y-7D01*
X654Y-3D01*
X655Y2D01*
X655Y2D01*
X655Y2D01*
X655Y2D01*
X655Y3D01*
X655Y3D01*
X655Y3D01*
X655Y3D01*
X655Y3D01*
X655Y3D01*
X655Y4D01*
X655Y4D01*
X655Y4D01*
X655Y5D01*
X655Y90D01*
X655Y91D01*
X655Y93D01*
X655Y93D01*
X655Y93D01*
X654Y94D01*
X653Y95D01*
X653Y95D01*
Y114D01*
X655Y115D01*
X659Y122D01*
X661Y130D01*
X659Y138D01*
X655Y145D01*
X648Y149D01*
X640Y151D01*
X632Y149D01*
X625Y145D01*
X621Y138D01*
X619Y130D01*
X621Y122D01*
X625Y115D01*
X627Y114D01*
Y99D01*
X501D01*
X501Y99D01*
X501D01*
X501Y99D01*
X500D01*
X500Y99D01*
X499Y99D01*
X499Y99D01*
X498Y99D01*
X498Y99D01*
X498Y98D01*
X497Y98D01*
X497Y98D01*
X497Y98D01*
X497Y98D01*
X497Y98D01*
X497Y98D01*
X497Y98D01*
X496Y97D01*
X496Y97D01*
X496Y97D01*
X496Y97D01*
X495Y96D01*
X495Y96D01*
X495Y96D01*
X495Y96D01*
X495Y96D01*
X495Y96D01*
X495Y95D01*
X494Y95D01*
X494Y95D01*
X494Y95D01*
X494Y95D01*
X494Y95D01*
X494Y95D01*
X494Y95D01*
X494Y94D01*
X494Y94D01*
X492Y91D01*
X492Y91D01*
X492Y91D01*
X492Y91D01*
X492Y91D01*
X492Y91D01*
X492Y91D01*
X492Y90D01*
X491Y90D01*
X491Y89D01*
X491Y89D01*
X491Y88D01*
X491Y88D01*
X491Y88D01*
X491Y88D01*
X491Y87D01*
X491Y87D01*
X491Y87D01*
X491Y87D01*
X491Y86D01*
X491Y86D01*
X491Y85D01*
X491Y85D01*
Y85D01*
X491Y85D01*
X491Y85D01*
X492Y85D01*
X492Y84D01*
X492Y84D01*
X492Y83D01*
X492Y83D01*
X492Y83D01*
X492Y82D01*
X493Y82D01*
X493Y79D01*
X493Y79D01*
X494Y77D01*
X494Y77D01*
X493Y72D01*
X490Y67D01*
X485Y64D01*
X480Y63D01*
X475Y64D01*
X470Y67D01*
X467Y72D01*
X466Y77D01*
X467Y82D01*
X468Y82D01*
X468Y83D01*
X468Y83D01*
X468Y83D01*
X468Y83D01*
X468Y84D01*
X468Y84D01*
X468Y84D01*
X468Y84D01*
X468Y85D01*
X469Y85D01*
X469Y85D01*
X469Y85D01*
X469Y86D01*
Y86D01*
X469Y87D01*
X469Y87D01*
X469Y87D01*
X469Y87D01*
X469Y88D01*
X469Y88D01*
X469Y88D01*
Y88D01*
X469Y89D01*
X469Y89D01*
X469Y90D01*
X468Y90D01*
X468Y91D01*
X468Y91D01*
X468Y91D01*
X468Y91D01*
X468Y91D01*
X468Y91D01*
X468Y91D01*
X466Y94D01*
X466Y94D01*
X466Y95D01*
X466Y95D01*
X466Y95D01*
X466Y95D01*
X466Y95D01*
X465Y96D01*
X465Y96D01*
X465Y96D01*
X465Y96D01*
X465Y96D01*
X465Y97D01*
X464Y97D01*
X464Y97D01*
X464Y97D01*
X464Y97D01*
X463Y98D01*
X463Y98D01*
X463Y98D01*
X463Y98D01*
X463Y98D01*
X462Y98D01*
X462Y99D01*
X461Y99D01*
X461Y99D01*
X461Y99D01*
X460Y99D01*
X460Y99D01*
X459Y99D01*
X459Y99D01*
X459D01*
X459Y99D01*
X457D01*
X455Y104D01*
X457Y108D01*
X459Y116D01*
X457Y124D01*
X453Y131D01*
X446Y135D01*
X438Y137D01*
X430Y135D01*
X423Y131D01*
X419Y124D01*
X417Y116D01*
X419Y108D01*
X421Y104D01*
X419Y99D01*
X264D01*
X262Y104D01*
X265Y109D01*
X267Y117D01*
X265Y125D01*
X261Y132D01*
X254Y136D01*
X246Y138D01*
X238Y136D01*
X231Y132D01*
X227Y125D01*
X225Y117D01*
X227Y109D01*
X230Y104D01*
X228Y99D01*
X215D01*
Y126D01*
Y178D01*
X220Y180D01*
X221Y178D01*
X228Y174D01*
X236Y172D01*
X244Y174D01*
X251Y178D01*
X255Y185D01*
X257Y193D01*
X255Y201D01*
X251Y208D01*
X244Y212D01*
X236Y214D01*
X228Y212D01*
X221Y208D01*
X220Y206D01*
X215Y208D01*
X215Y413D01*
X355D01*
X358Y408D01*
X356Y405D01*
X354Y397D01*
X356Y389D01*
X360Y382D01*
X366Y378D01*
X362Y372D01*
X360Y364D01*
X362Y356D01*
X366Y349D01*
X373Y345D01*
X381Y343D01*
X389Y345D01*
X396Y349D01*
X400Y356D01*
X402Y364D01*
X400Y372D01*
X396Y379D01*
X390Y383D01*
X394Y389D01*
X396Y397D01*
X394Y405D01*
X392Y408D01*
X395Y413D01*
X429D01*
X432Y413D01*
X434Y415D01*
X439Y420D01*
X440Y422D01*
X441Y425D01*
Y589D01*
X441Y589D01*
X441Y590D01*
X441Y591D01*
X440Y591D01*
X440Y592D01*
X440Y593D01*
X439Y593D01*
X439Y594D01*
X438Y594D01*
X438Y595D01*
X437Y595D01*
X437Y595D01*
X436Y595D01*
X435Y596D01*
X433Y596D01*
X432Y601D01*
X435Y604D01*
X435Y604D01*
X436Y605D01*
X437Y605D01*
X437Y605D01*
X438Y605D01*
X438Y606D01*
X439Y606D01*
X439Y606D01*
X439Y607D01*
X440Y607D01*
X440Y608D01*
X440Y609D01*
X441Y609D01*
X441Y610D01*
Y611D01*
X441Y611D01*
Y634D01*
X443Y637D01*
X445Y639D01*
X445Y639D01*
X1338D01*
Y-39D01*
D02*
G37*
G36*
X434Y634D02*
Y611D01*
X434Y611D01*
X433Y611D01*
X429Y611D01*
X427Y615D01*
X422Y622D01*
X415Y627D01*
X408Y630D01*
X400Y631D01*
X392Y630D01*
X385Y627D01*
X378Y622D01*
X373Y615D01*
X370Y608D01*
X369Y600D01*
X370Y592D01*
X373Y585D01*
X378Y578D01*
X385Y573D01*
X392Y570D01*
X400Y569D01*
X408Y570D01*
X415Y573D01*
X422Y578D01*
X427Y585D01*
X429Y590D01*
X429Y590D01*
X434Y589D01*
Y425D01*
X429Y420D01*
X208D01*
Y413D01*
X208Y208D01*
Y178D01*
Y126D01*
Y92D01*
X458D01*
X458Y92D01*
X459D01*
X459Y92D01*
X459D01*
X459Y92D01*
X459Y92D01*
X459Y92D01*
X460Y91D01*
X460Y91D01*
X460Y91D01*
X460Y91D01*
X461Y88D01*
X462Y88D01*
X462Y87D01*
X462Y87D01*
X462Y87D01*
X462Y87D01*
X462Y87D01*
X462Y86D01*
X462Y86D01*
X461Y86D01*
X461Y86D01*
X461Y85D01*
X459Y77D01*
X461Y69D01*
X465Y62D01*
X472Y58D01*
X480Y56D01*
X488Y58D01*
X495Y62D01*
X499Y69D01*
X501Y77D01*
X501Y78D01*
Y78D01*
X500Y81D01*
X499Y85D01*
X498Y86D01*
X498Y86D01*
X498Y87D01*
X498Y87D01*
X498Y87D01*
X498Y87D01*
X498Y87D01*
X498Y88D01*
X499Y88D01*
X499Y88D01*
X500Y91D01*
X500Y91D01*
X500Y91D01*
X500Y91D01*
X500Y91D01*
X501Y92D01*
X501Y92D01*
X501Y92D01*
X501Y92D01*
X501D01*
X501Y92D01*
X644D01*
X648Y90D01*
X648Y89D01*
X648Y5D01*
X648Y5D01*
X648Y5D01*
X648Y5D01*
X648Y4D01*
X648Y4D01*
X648Y4D01*
X648Y4D01*
X648Y4D01*
X648Y3D01*
X646Y-1D01*
X646Y-1D01*
X638Y-3D01*
X635Y-4D01*
X631Y-1D01*
X631Y0D01*
X630Y8D01*
X627Y15D01*
X622Y22D01*
X615Y27D01*
X608Y30D01*
X600Y31D01*
X592Y30D01*
X585Y27D01*
X578Y22D01*
X573Y15D01*
X570Y8D01*
X569Y0D01*
X570Y-8D01*
X573Y-15D01*
X578Y-22D01*
X585Y-27D01*
X592Y-30D01*
X600Y-31D01*
X608Y-30D01*
X615Y-27D01*
X620Y-23D01*
X625Y-25D01*
X625Y-25D01*
X626Y-30D01*
X629Y-34D01*
X626Y-39D01*
X-32D01*
X-33Y-35D01*
X-30Y-31D01*
X31D01*
Y31D01*
X-29D01*
X-31Y31D01*
X-34Y34D01*
Y420D01*
Y503D01*
X-29Y504D01*
X-23Y501D01*
X-15Y499D01*
X-7Y501D01*
X-0Y505D01*
X4Y512D01*
X6Y520D01*
X4Y528D01*
X-0Y535D01*
X-7Y539D01*
X-15Y541D01*
X-23Y539D01*
X-29Y536D01*
X-34Y537D01*
Y591D01*
X-29Y592D01*
X-26Y585D01*
X-21Y579D01*
X-15Y574D01*
X-8Y571D01*
X-5Y571D01*
Y600D01*
Y629D01*
X-8Y629D01*
X-15Y626D01*
X-21Y621D01*
X-26Y615D01*
X-29Y608D01*
X-34Y609D01*
Y639D01*
X429D01*
X434Y634D01*
D02*
G37*
%LPC*%
G36*
X329Y155D02*
X321Y153D01*
X314Y149D01*
X310Y142D01*
X308Y134D01*
X310Y126D01*
X314Y119D01*
X321Y115D01*
X329Y113D01*
X337Y115D01*
X344Y119D01*
X348Y126D01*
X350Y134D01*
X348Y142D01*
X344Y149D01*
X337Y153D01*
X329Y155D01*
D02*
G37*
G36*
X969Y176D02*
X961Y174D01*
X954Y170D01*
X950Y163D01*
X948Y155D01*
X950Y147D01*
X954Y140D01*
X961Y136D01*
X969Y134D01*
X977Y136D01*
X984Y140D01*
X988Y147D01*
X990Y155D01*
X988Y163D01*
X984Y170D01*
X977Y174D01*
X969Y176D01*
D02*
G37*
G36*
X386Y200D02*
X378Y198D01*
X371Y194D01*
X367Y187D01*
X365Y179D01*
X367Y171D01*
X371Y164D01*
X375Y161D01*
X374Y156D01*
X370Y155D01*
X363Y151D01*
X359Y144D01*
X357Y136D01*
X359Y128D01*
X363Y121D01*
X370Y117D01*
X378Y115D01*
X386Y117D01*
X393Y121D01*
X397Y128D01*
X399Y136D01*
X397Y144D01*
X393Y151D01*
X389Y154D01*
X390Y159D01*
X394Y160D01*
X401Y164D01*
X405Y171D01*
X407Y179D01*
X405Y187D01*
X401Y194D01*
X394Y198D01*
X386Y200D01*
D02*
G37*
G36*
X1300Y131D02*
X1292Y130D01*
X1285Y127D01*
X1278Y122D01*
X1273Y115D01*
X1270Y108D01*
X1269Y100D01*
X1270Y92D01*
X1273Y85D01*
X1278Y78D01*
X1285Y73D01*
X1292Y70D01*
X1300Y69D01*
X1308Y70D01*
X1315Y73D01*
X1322Y78D01*
X1327Y85D01*
X1330Y92D01*
X1331Y100D01*
X1330Y108D01*
X1327Y115D01*
X1322Y122D01*
X1315Y127D01*
X1308Y130D01*
X1300Y131D01*
D02*
G37*
G36*
X1000D02*
X992Y130D01*
X985Y127D01*
X978Y122D01*
X973Y115D01*
X970Y108D01*
X969Y100D01*
X970Y92D01*
X973Y85D01*
X978Y78D01*
X985Y73D01*
X992Y70D01*
X1000Y69D01*
X1008Y70D01*
X1015Y73D01*
X1022Y78D01*
X1027Y85D01*
X1030Y92D01*
X1031Y100D01*
X1030Y108D01*
X1027Y115D01*
X1022Y122D01*
X1015Y127D01*
X1008Y130D01*
X1000Y131D01*
D02*
G37*
G36*
X1100D02*
X1092Y130D01*
X1085Y127D01*
X1078Y122D01*
X1073Y115D01*
X1070Y108D01*
X1069Y100D01*
X1070Y92D01*
X1073Y85D01*
X1078Y78D01*
X1085Y73D01*
X1092Y70D01*
X1100Y69D01*
X1108Y70D01*
X1115Y73D01*
X1122Y78D01*
X1127Y85D01*
X1130Y92D01*
X1131Y100D01*
X1130Y108D01*
X1127Y115D01*
X1122Y122D01*
X1115Y127D01*
X1108Y130D01*
X1100Y131D01*
D02*
G37*
G36*
X1200D02*
X1192Y130D01*
X1185Y127D01*
X1178Y122D01*
X1173Y115D01*
X1170Y108D01*
X1169Y100D01*
X1170Y92D01*
X1173Y85D01*
X1178Y78D01*
X1185Y73D01*
X1192Y70D01*
X1200Y69D01*
X1208Y70D01*
X1215Y73D01*
X1222Y78D01*
X1227Y85D01*
X1230Y92D01*
X1231Y100D01*
X1230Y108D01*
X1227Y115D01*
X1222Y122D01*
X1215Y127D01*
X1208Y130D01*
X1200Y131D01*
D02*
G37*
G36*
X1025Y176D02*
X1017Y174D01*
X1010Y170D01*
X1006Y163D01*
X1004Y155D01*
X1006Y147D01*
X1010Y140D01*
X1017Y136D01*
X1025Y134D01*
X1033Y136D01*
X1040Y140D01*
X1044Y147D01*
X1046Y155D01*
X1044Y163D01*
X1040Y170D01*
X1033Y174D01*
X1025Y176D01*
D02*
G37*
G36*
X65Y276D02*
X57Y274D01*
X50Y270D01*
X46Y263D01*
X44Y255D01*
X46Y247D01*
X50Y240D01*
X57Y236D01*
X65Y234D01*
X73Y236D01*
X80Y240D01*
X84Y247D01*
X86Y255D01*
X84Y263D01*
X80Y270D01*
X73Y274D01*
X65Y276D01*
D02*
G37*
G36*
X339Y309D02*
X331Y307D01*
X324Y303D01*
X320Y296D01*
X318Y289D01*
X316Y287D01*
X314Y285D01*
X307Y283D01*
X300Y279D01*
X296Y272D01*
X294Y264D01*
X296Y256D01*
X300Y249D01*
X307Y245D01*
X315Y243D01*
X323Y245D01*
X330Y249D01*
X334Y256D01*
X336Y263D01*
X338Y265D01*
X340Y267D01*
X347Y269D01*
X354Y273D01*
X358Y280D01*
X360Y288D01*
X358Y296D01*
X354Y303D01*
X347Y307D01*
X339Y309D01*
D02*
G37*
G36*
X778Y302D02*
X770Y300D01*
X763Y296D01*
X759Y289D01*
X757Y281D01*
X759Y273D01*
X763Y266D01*
X770Y262D01*
X778Y260D01*
X786Y262D01*
X793Y266D01*
X797Y273D01*
X799Y281D01*
X797Y289D01*
X793Y296D01*
X786Y300D01*
X778Y302D01*
D02*
G37*
G36*
X996Y242D02*
X988Y240D01*
X981Y236D01*
X979Y233D01*
X973D01*
X971Y236D01*
X964Y240D01*
X956Y242D01*
X948Y240D01*
X941Y236D01*
X936Y229D01*
X935Y221D01*
Y209D01*
X936Y201D01*
X941Y194D01*
X948Y190D01*
X956Y188D01*
X964Y190D01*
X971Y194D01*
X973Y197D01*
X979D01*
X981Y194D01*
X988Y190D01*
X996Y188D01*
X1004Y190D01*
X1011Y194D01*
X1016Y201D01*
X1017Y209D01*
Y221D01*
X1016Y229D01*
X1011Y236D01*
X1004Y240D01*
X996Y242D01*
D02*
G37*
G36*
X573Y175D02*
X565Y173D01*
X558Y169D01*
X554Y162D01*
X552Y154D01*
X552Y153D01*
X548Y149D01*
X542Y147D01*
X535Y143D01*
X534Y141D01*
X528Y141D01*
X523Y144D01*
X515Y146D01*
X507Y144D01*
X500Y140D01*
X496Y133D01*
X494Y125D01*
X496Y117D01*
X500Y110D01*
X507Y106D01*
X515Y104D01*
X523Y106D01*
X530Y110D01*
X531Y112D01*
X537Y112D01*
X542Y109D01*
X550Y107D01*
X558Y109D01*
X565Y113D01*
X569Y120D01*
X571Y128D01*
X571Y129D01*
X575Y133D01*
X581Y135D01*
X588Y139D01*
X592Y146D01*
X594Y154D01*
X592Y162D01*
X588Y169D01*
X581Y173D01*
X573Y175D01*
D02*
G37*
G36*
X755Y191D02*
X747Y189D01*
X740Y185D01*
X736Y178D01*
X734Y170D01*
X736Y162D01*
X736Y162D01*
X736Y161D01*
X733Y158D01*
X726Y159D01*
X718Y157D01*
X711Y153D01*
X711Y153D01*
X706D01*
X706Y153D01*
X699Y157D01*
X691Y159D01*
X688Y158D01*
X686Y160D01*
X684Y163D01*
X686Y170D01*
X684Y178D01*
X680Y185D01*
X673Y189D01*
X665Y191D01*
X657Y189D01*
X650Y185D01*
X646Y178D01*
X644Y170D01*
X646Y162D01*
X650Y155D01*
X657Y151D01*
X665Y149D01*
X669Y150D01*
X670Y148D01*
X672Y145D01*
X670Y138D01*
X672Y130D01*
X677Y123D01*
X683Y119D01*
X691Y117D01*
X699Y119D01*
X706Y123D01*
X706Y123D01*
X711D01*
X711Y123D01*
X718Y119D01*
X726Y117D01*
X734Y119D01*
X741Y123D01*
X745Y130D01*
X747Y138D01*
X745Y146D01*
X745Y146D01*
X745Y147D01*
X748Y150D01*
X755Y149D01*
X760Y150D01*
X764Y146D01*
X762Y138D01*
X764Y130D01*
X768Y123D01*
X775Y119D01*
X783Y117D01*
X791Y119D01*
X798Y123D01*
X802Y130D01*
X804Y138D01*
X802Y146D01*
X798Y153D01*
X791Y157D01*
X783Y159D01*
X778Y158D01*
X774Y162D01*
X776Y170D01*
X774Y178D01*
X770Y185D01*
X763Y189D01*
X755Y191D01*
D02*
G37*
G36*
X492Y214D02*
X484Y212D01*
X477Y208D01*
X473Y201D01*
X471Y193D01*
X473Y185D01*
X477Y178D01*
X484Y174D01*
X492Y172D01*
X500Y174D01*
X503Y175D01*
X508Y173D01*
X513Y166D01*
X520Y162D01*
X528Y160D01*
X536Y162D01*
X542Y166D01*
X547Y173D01*
X548Y181D01*
X547Y189D01*
X542Y196D01*
X536Y200D01*
X528Y202D01*
X520Y200D01*
X517Y199D01*
X511Y201D01*
X507Y208D01*
X500Y212D01*
X492Y214D01*
D02*
G37*
G36*
X800Y31D02*
X792Y30D01*
X785Y27D01*
X778Y22D01*
X773Y15D01*
X770Y8D01*
X769Y0D01*
X770Y-8D01*
X773Y-15D01*
X778Y-22D01*
X785Y-27D01*
X792Y-30D01*
X800Y-31D01*
X808Y-30D01*
X815Y-27D01*
X822Y-22D01*
X827Y-15D01*
X830Y-8D01*
X831Y0D01*
X830Y8D01*
X827Y15D01*
X822Y22D01*
X815Y27D01*
X808Y30D01*
X800Y31D01*
D02*
G37*
G36*
X700D02*
X692Y30D01*
X685Y27D01*
X678Y22D01*
X673Y15D01*
X670Y8D01*
X669Y0D01*
X670Y-8D01*
X673Y-15D01*
X678Y-22D01*
X685Y-27D01*
X692Y-30D01*
X700Y-31D01*
X708Y-30D01*
X715Y-27D01*
X722Y-22D01*
X727Y-15D01*
X730Y-8D01*
X731Y0D01*
X730Y8D01*
X727Y15D01*
X722Y22D01*
X715Y27D01*
X708Y30D01*
X700Y31D01*
D02*
G37*
G36*
X1000D02*
X992Y30D01*
X985Y27D01*
X978Y22D01*
X973Y15D01*
X970Y8D01*
X969Y0D01*
X970Y-8D01*
X973Y-15D01*
X978Y-22D01*
X985Y-27D01*
X992Y-30D01*
X1000Y-31D01*
X1008Y-30D01*
X1015Y-27D01*
X1022Y-22D01*
X1027Y-15D01*
X1030Y-8D01*
X1031Y0D01*
X1030Y8D01*
X1027Y15D01*
X1022Y22D01*
X1015Y27D01*
X1008Y30D01*
X1000Y31D01*
D02*
G37*
G36*
X900D02*
X892Y30D01*
X885Y27D01*
X878Y22D01*
X873Y15D01*
X870Y8D01*
X869Y0D01*
X870Y-8D01*
X873Y-15D01*
X878Y-22D01*
X885Y-27D01*
X892Y-30D01*
X900Y-31D01*
X908Y-30D01*
X915Y-27D01*
X922Y-22D01*
X927Y-15D01*
X930Y-8D01*
X931Y0D01*
X930Y8D01*
X927Y15D01*
X922Y22D01*
X915Y27D01*
X908Y30D01*
X900Y31D01*
D02*
G37*
G36*
X200D02*
X192Y30D01*
X185Y27D01*
X178Y22D01*
X173Y15D01*
X170Y8D01*
X169Y0D01*
X170Y-8D01*
X173Y-15D01*
X178Y-22D01*
X185Y-27D01*
X192Y-30D01*
X200Y-31D01*
X208Y-30D01*
X215Y-27D01*
X222Y-22D01*
X227Y-15D01*
X230Y-8D01*
X231Y0D01*
X230Y8D01*
X227Y15D01*
X222Y22D01*
X215Y27D01*
X208Y30D01*
X200Y31D01*
D02*
G37*
G36*
X100D02*
X92Y30D01*
X85Y27D01*
X78Y22D01*
X73Y15D01*
X70Y8D01*
X69Y0D01*
X70Y-8D01*
X73Y-15D01*
X78Y-22D01*
X85Y-27D01*
X92Y-30D01*
X100Y-31D01*
X108Y-30D01*
X115Y-27D01*
X122Y-22D01*
X127Y-15D01*
X130Y-8D01*
X131Y0D01*
X130Y8D01*
X127Y15D01*
X122Y22D01*
X115Y27D01*
X108Y30D01*
X100Y31D01*
D02*
G37*
G36*
X500D02*
X492Y30D01*
X485Y27D01*
X478Y22D01*
X473Y15D01*
X470Y8D01*
X469Y0D01*
X470Y-8D01*
X473Y-15D01*
X478Y-22D01*
X485Y-27D01*
X492Y-30D01*
X500Y-31D01*
X508Y-30D01*
X515Y-27D01*
X522Y-22D01*
X527Y-15D01*
X530Y-8D01*
X531Y0D01*
X530Y8D01*
X527Y15D01*
X522Y22D01*
X515Y27D01*
X508Y30D01*
X500Y31D01*
D02*
G37*
G36*
X400D02*
X392Y30D01*
X385Y27D01*
X378Y22D01*
X373Y15D01*
X370Y8D01*
X369Y0D01*
X370Y-8D01*
X373Y-15D01*
X378Y-22D01*
X385Y-27D01*
X392Y-30D01*
X400Y-31D01*
X408Y-30D01*
X415Y-27D01*
X422Y-22D01*
X427Y-15D01*
X430Y-8D01*
X431Y0D01*
X430Y8D01*
X427Y15D01*
X422Y22D01*
X415Y27D01*
X408Y30D01*
X400Y31D01*
D02*
G37*
G36*
X150Y66D02*
X142Y64D01*
X135Y60D01*
X131Y53D01*
X129Y45D01*
X131Y37D01*
X135Y30D01*
X142Y26D01*
X150Y24D01*
X158Y26D01*
X165Y30D01*
X169Y37D01*
X171Y45D01*
X169Y53D01*
X165Y60D01*
X158Y64D01*
X150Y66D01*
D02*
G37*
G36*
X55Y61D02*
X47Y59D01*
X40Y55D01*
X36Y48D01*
X34Y40D01*
X36Y32D01*
X40Y25D01*
X47Y21D01*
X55Y19D01*
X63Y21D01*
X70Y25D01*
X74Y32D01*
X76Y40D01*
X74Y48D01*
X70Y55D01*
X63Y59D01*
X55Y61D01*
D02*
G37*
G36*
X900Y131D02*
X892Y130D01*
X885Y127D01*
X878Y122D01*
X873Y115D01*
X870Y108D01*
X869Y100D01*
X870Y92D01*
X873Y85D01*
X878Y78D01*
X885Y73D01*
X892Y70D01*
X900Y69D01*
X908Y70D01*
X915Y73D01*
X922Y78D01*
X927Y85D01*
X930Y92D01*
X931Y100D01*
X930Y108D01*
X927Y115D01*
X922Y122D01*
X915Y127D01*
X908Y130D01*
X900Y131D01*
D02*
G37*
G36*
X853Y73D02*
X845Y71D01*
X838Y67D01*
X834Y60D01*
X832Y52D01*
X834Y44D01*
X838Y37D01*
X845Y33D01*
X853Y31D01*
X861Y33D01*
X868Y37D01*
X872Y44D01*
X874Y52D01*
X872Y60D01*
X868Y67D01*
X861Y71D01*
X853Y73D01*
D02*
G37*
G36*
X1200Y31D02*
X1192Y30D01*
X1185Y27D01*
X1178Y22D01*
X1173Y15D01*
X1170Y8D01*
X1169Y0D01*
X1170Y-8D01*
X1173Y-15D01*
X1178Y-22D01*
X1185Y-27D01*
X1192Y-30D01*
X1200Y-31D01*
X1208Y-30D01*
X1215Y-27D01*
X1222Y-22D01*
X1227Y-15D01*
X1230Y-8D01*
X1231Y0D01*
X1230Y8D01*
X1227Y15D01*
X1222Y22D01*
X1215Y27D01*
X1208Y30D01*
X1200Y31D01*
D02*
G37*
G36*
X1100D02*
X1092Y30D01*
X1085Y27D01*
X1078Y22D01*
X1073Y15D01*
X1070Y8D01*
X1069Y0D01*
X1070Y-8D01*
X1073Y-15D01*
X1078Y-22D01*
X1085Y-27D01*
X1092Y-30D01*
X1100Y-31D01*
X1108Y-30D01*
X1115Y-27D01*
X1122Y-22D01*
X1127Y-15D01*
X1130Y-8D01*
X1131Y0D01*
X1130Y8D01*
X1127Y15D01*
X1122Y22D01*
X1115Y27D01*
X1108Y30D01*
X1100Y31D01*
D02*
G37*
G36*
X300D02*
X292Y30D01*
X285Y27D01*
X278Y22D01*
X273Y15D01*
X270Y8D01*
X269Y0D01*
X270Y-8D01*
X273Y-15D01*
X278Y-22D01*
X285Y-27D01*
X292Y-30D01*
X300Y-31D01*
X308Y-30D01*
X315Y-27D01*
X322Y-22D01*
X327Y-15D01*
X328Y-12D01*
X333Y-11D01*
X335Y-12D01*
X343Y-14D01*
X351Y-12D01*
X358Y-8D01*
X362Y-1D01*
X364Y7D01*
X362Y15D01*
X358Y22D01*
X351Y26D01*
X343Y28D01*
X335Y26D01*
X328Y22D01*
X328Y21D01*
X323Y21D01*
X322Y22D01*
X315Y27D01*
X308Y30D01*
X300Y31D01*
D02*
G37*
G36*
X1300D02*
X1292Y30D01*
X1285Y27D01*
X1278Y22D01*
X1273Y15D01*
X1270Y8D01*
X1269Y0D01*
X1270Y-8D01*
X1273Y-15D01*
X1278Y-22D01*
X1285Y-27D01*
X1292Y-30D01*
X1300Y-31D01*
X1308Y-30D01*
X1315Y-27D01*
X1322Y-22D01*
X1327Y-15D01*
X1330Y-8D01*
X1331Y0D01*
X1330Y8D01*
X1327Y15D01*
X1322Y22D01*
X1315Y27D01*
X1308Y30D01*
X1300Y31D01*
D02*
G37*
G36*
X688Y332D02*
X680Y330D01*
X673Y326D01*
X669Y319D01*
X667Y311D01*
X669Y303D01*
X673Y296D01*
X680Y292D01*
X688Y290D01*
X696Y292D01*
X703Y296D01*
X707Y303D01*
X709Y311D01*
X707Y319D01*
X703Y326D01*
X696Y330D01*
X688Y332D01*
D02*
G37*
G36*
X500Y631D02*
X492Y630D01*
X485Y627D01*
X478Y622D01*
X473Y615D01*
X470Y608D01*
X469Y600D01*
X470Y592D01*
X473Y585D01*
X478Y578D01*
X485Y573D01*
X492Y570D01*
X500Y569D01*
X508Y570D01*
X515Y573D01*
X522Y578D01*
X527Y585D01*
X530Y592D01*
X531Y600D01*
X530Y608D01*
X527Y615D01*
X522Y622D01*
X515Y627D01*
X508Y630D01*
X500Y631D01*
D02*
G37*
G36*
X600D02*
X592Y630D01*
X585Y627D01*
X578Y622D01*
X573Y615D01*
X570Y608D01*
X569Y600D01*
X570Y592D01*
X573Y585D01*
X578Y578D01*
X585Y573D01*
X592Y570D01*
X600Y569D01*
X608Y570D01*
X615Y573D01*
X622Y578D01*
X627Y585D01*
X630Y592D01*
X631Y600D01*
X630Y608D01*
X627Y615D01*
X622Y622D01*
X615Y627D01*
X608Y630D01*
X600Y631D01*
D02*
G37*
G36*
X700D02*
X692Y630D01*
X685Y627D01*
X678Y622D01*
X673Y615D01*
X670Y608D01*
X669Y600D01*
X670Y592D01*
X673Y585D01*
X678Y578D01*
X685Y573D01*
X692Y570D01*
X700Y569D01*
X708Y570D01*
X715Y573D01*
X722Y578D01*
X727Y585D01*
X730Y592D01*
X731Y600D01*
X730Y608D01*
X727Y615D01*
X722Y622D01*
X715Y627D01*
X708Y630D01*
X700Y631D01*
D02*
G37*
G36*
X300D02*
X292Y630D01*
X285Y627D01*
X278Y622D01*
X273Y615D01*
X270Y608D01*
X269Y600D01*
X270Y592D01*
X273Y585D01*
X278Y578D01*
X285Y573D01*
X292Y570D01*
X300Y569D01*
X308Y570D01*
X315Y573D01*
X322Y578D01*
X327Y585D01*
X330Y592D01*
X331Y600D01*
X330Y608D01*
X327Y615D01*
X322Y622D01*
X315Y627D01*
X308Y630D01*
X300Y631D01*
D02*
G37*
G36*
X749Y584D02*
X741Y582D01*
X734Y578D01*
X730Y571D01*
X728Y563D01*
X730Y555D01*
X734Y548D01*
X741Y544D01*
X749Y542D01*
X757Y544D01*
X764Y548D01*
X768Y555D01*
X770Y563D01*
X768Y571D01*
X764Y578D01*
X757Y582D01*
X749Y584D01*
D02*
G37*
G36*
X100Y631D02*
X92Y630D01*
X85Y627D01*
X78Y622D01*
X73Y615D01*
X70Y608D01*
X69Y600D01*
X70Y592D01*
X73Y585D01*
X78Y578D01*
X85Y573D01*
X92Y570D01*
X100Y569D01*
X108Y570D01*
X115Y573D01*
X122Y578D01*
X127Y585D01*
X130Y592D01*
X131Y600D01*
X130Y608D01*
X127Y615D01*
X122Y622D01*
X115Y627D01*
X108Y630D01*
X100Y631D01*
D02*
G37*
G36*
X200D02*
X192Y630D01*
X185Y627D01*
X178Y622D01*
X173Y615D01*
X170Y608D01*
X169Y600D01*
X170Y592D01*
X173Y585D01*
X178Y578D01*
X185Y573D01*
X192Y570D01*
X200Y569D01*
X203Y570D01*
X208Y570D01*
X215Y573D01*
X222Y578D01*
X227Y585D01*
X230Y592D01*
X231Y600D01*
X230Y608D01*
X227Y615D01*
X222Y622D01*
X215Y627D01*
X208Y630D01*
X200Y631D01*
D02*
G37*
G36*
X800D02*
X792Y630D01*
X785Y627D01*
X778Y622D01*
X773Y615D01*
X770Y608D01*
X769Y600D01*
X770Y592D01*
X773Y585D01*
X778Y578D01*
X785Y573D01*
X792Y570D01*
X800Y569D01*
X808Y570D01*
X815Y573D01*
X822Y578D01*
X827Y585D01*
X830Y592D01*
X831Y600D01*
X830Y608D01*
X827Y615D01*
X822Y622D01*
X815Y627D01*
X808Y630D01*
X800Y631D01*
D02*
G37*
G36*
X1300D02*
X1292Y630D01*
X1285Y627D01*
X1278Y622D01*
X1273Y615D01*
X1270Y608D01*
X1269Y600D01*
X1270Y592D01*
X1273Y585D01*
X1278Y578D01*
X1285Y573D01*
X1292Y570D01*
X1300Y569D01*
X1308Y570D01*
X1315Y573D01*
X1322Y578D01*
X1327Y585D01*
X1330Y592D01*
X1331Y600D01*
X1330Y608D01*
X1327Y615D01*
X1322Y622D01*
X1315Y627D01*
X1308Y630D01*
X1300Y631D01*
D02*
G37*
G36*
X29Y595D02*
X5D01*
Y571D01*
X8Y571D01*
X15Y574D01*
X21Y579D01*
X26Y585D01*
X29Y592D01*
X29Y595D01*
D02*
G37*
G36*
X5Y629D02*
Y605D01*
X29D01*
X29Y608D01*
X26Y615D01*
X21Y621D01*
X15Y626D01*
X8Y629D01*
X5Y629D01*
D02*
G37*
G36*
X1200Y631D02*
X1192Y630D01*
X1185Y627D01*
X1178Y622D01*
X1173Y615D01*
X1170Y608D01*
X1169Y600D01*
X1170Y592D01*
X1173Y585D01*
X1178Y578D01*
X1185Y573D01*
X1192Y570D01*
X1200Y569D01*
X1208Y570D01*
X1215Y573D01*
X1222Y578D01*
X1227Y585D01*
X1230Y592D01*
X1231Y600D01*
X1230Y608D01*
X1227Y615D01*
X1222Y622D01*
X1215Y627D01*
X1208Y630D01*
X1200Y631D01*
D02*
G37*
G36*
X900D02*
X892Y630D01*
X885Y627D01*
X878Y622D01*
X873Y615D01*
X870Y608D01*
X869Y600D01*
X870Y592D01*
X873Y585D01*
X878Y578D01*
X885Y573D01*
X892Y570D01*
X900Y569D01*
X908Y570D01*
X915Y573D01*
X922Y578D01*
X927Y585D01*
X930Y592D01*
X931Y600D01*
X930Y608D01*
X927Y615D01*
X922Y622D01*
X915Y627D01*
X908Y630D01*
X900Y631D01*
D02*
G37*
G36*
X1000D02*
X992Y630D01*
X985Y627D01*
X978Y622D01*
X973Y615D01*
X970Y608D01*
X969Y600D01*
X970Y592D01*
X973Y585D01*
X978Y578D01*
X985Y573D01*
X992Y570D01*
X1000Y569D01*
X1008Y570D01*
X1015Y573D01*
X1022Y578D01*
X1027Y585D01*
X1030Y592D01*
X1031Y600D01*
X1030Y608D01*
X1027Y615D01*
X1022Y622D01*
X1015Y627D01*
X1008Y630D01*
X1000Y631D01*
D02*
G37*
G36*
X1100D02*
X1092Y630D01*
X1085Y627D01*
X1078Y622D01*
X1073Y615D01*
X1070Y608D01*
X1069Y600D01*
X1070Y592D01*
X1073Y585D01*
X1078Y578D01*
X1085Y573D01*
X1092Y570D01*
X1100Y569D01*
X1108Y570D01*
X1115Y573D01*
X1122Y578D01*
X1127Y585D01*
X1130Y592D01*
X1131Y600D01*
X1130Y608D01*
X1127Y615D01*
X1122Y622D01*
X1115Y627D01*
X1108Y630D01*
X1100Y631D01*
D02*
G37*
G36*
X1034Y570D02*
X1025Y569D01*
X1018Y564D01*
X1013Y557D01*
X1012Y548D01*
X1013Y539D01*
X1018Y532D01*
X1025Y527D01*
X1034Y526D01*
X1043Y527D01*
X1050Y532D01*
X1055Y539D01*
X1056Y548D01*
X1055Y557D01*
X1050Y564D01*
X1043Y569D01*
X1034Y570D01*
D02*
G37*
G36*
X773Y437D02*
X765Y435D01*
X758Y431D01*
X754Y424D01*
X752Y416D01*
X754Y408D01*
X758Y401D01*
X765Y397D01*
X773Y395D01*
X774Y395D01*
X776Y391D01*
X770Y387D01*
X764Y387D01*
X762Y391D01*
X755Y395D01*
X747Y397D01*
X739Y395D01*
X732Y391D01*
X728Y384D01*
X726Y376D01*
X728Y368D01*
X732Y361D01*
X739Y357D01*
X747Y355D01*
X755Y357D01*
X762Y361D01*
X768Y361D01*
X770Y357D01*
X777Y353D01*
X785Y351D01*
X793Y353D01*
X800Y357D01*
X804Y364D01*
X806Y372D01*
X804Y380D01*
X800Y387D01*
X793Y391D01*
X785Y393D01*
X784Y393D01*
X782Y397D01*
X788Y401D01*
X792Y408D01*
X792Y408D01*
X797Y408D01*
X799Y400D01*
X803Y393D01*
X810Y389D01*
X818Y387D01*
X826Y389D01*
X833Y393D01*
X837Y400D01*
X839Y408D01*
X837Y416D01*
X833Y423D01*
X826Y427D01*
X818Y429D01*
X810Y427D01*
X803Y423D01*
X799Y416D01*
X799Y416D01*
X794Y416D01*
X792Y424D01*
X788Y431D01*
X781Y435D01*
X773Y437D01*
D02*
G37*
G36*
X649Y474D02*
X641Y472D01*
X634Y468D01*
X630Y461D01*
X628Y453D01*
X630Y445D01*
X634Y438D01*
X641Y434D01*
X649Y432D01*
X652Y433D01*
X655Y428D01*
X655Y428D01*
X653Y420D01*
X655Y412D01*
X659Y405D01*
X666Y401D01*
X674Y399D01*
X682Y401D01*
X689Y405D01*
X693Y412D01*
X695Y420D01*
X693Y428D01*
X689Y435D01*
X682Y439D01*
X674Y441D01*
X671Y440D01*
X668Y445D01*
X668Y445D01*
X670Y453D01*
X668Y461D01*
X664Y468D01*
X657Y472D01*
X649Y474D01*
D02*
G37*
G36*
X524Y448D02*
X516Y446D01*
X509Y442D01*
X505Y435D01*
X503Y427D01*
X504Y424D01*
X499Y420D01*
X494Y421D01*
X486Y419D01*
X479Y415D01*
X475Y408D01*
X473Y400D01*
X475Y392D01*
X479Y385D01*
X483Y383D01*
X483Y382D01*
X482Y377D01*
X477Y374D01*
X473Y367D01*
X471Y359D01*
X473Y351D01*
X477Y344D01*
X484Y340D01*
X492Y338D01*
X500Y340D01*
X507Y344D01*
X511Y351D01*
X513Y359D01*
X511Y367D01*
X507Y374D01*
X503Y376D01*
X503Y377D01*
X504Y382D01*
X509Y385D01*
X513Y392D01*
X515Y400D01*
X514Y403D01*
X519Y407D01*
X524Y406D01*
X532Y408D01*
X539Y412D01*
X543Y419D01*
X545Y427D01*
X543Y435D01*
X539Y442D01*
X532Y446D01*
X524Y448D01*
D02*
G37*
G36*
X1174Y413D02*
X1166Y411D01*
X1159Y407D01*
X1155Y400D01*
X1153Y392D01*
X1155Y384D01*
X1159Y377D01*
X1166Y373D01*
X1174Y371D01*
X1182Y373D01*
X1189Y377D01*
X1193Y384D01*
X1195Y392D01*
X1193Y400D01*
X1189Y407D01*
X1182Y411D01*
X1174Y413D01*
D02*
G37*
G36*
X530Y336D02*
X522Y334D01*
X515Y330D01*
X511Y323D01*
X509Y315D01*
X511Y307D01*
X515Y300D01*
X515Y300D01*
X513Y295D01*
X508Y296D01*
X500Y295D01*
X493Y290D01*
X489Y284D01*
X487Y276D01*
X489Y268D01*
X492Y262D01*
X493Y259D01*
X492Y255D01*
X489Y250D01*
X487Y242D01*
X489Y234D01*
X493Y227D01*
X500Y223D01*
X508Y221D01*
X516Y223D01*
X523Y227D01*
X527Y234D01*
X529Y242D01*
X527Y250D01*
X524Y255D01*
X523Y259D01*
X524Y262D01*
X527Y268D01*
X529Y276D01*
X527Y284D01*
X523Y290D01*
X522Y290D01*
X524Y295D01*
X530Y294D01*
X538Y296D01*
X545Y300D01*
X549Y307D01*
X551Y315D01*
X549Y323D01*
X545Y330D01*
X538Y334D01*
X530Y336D01*
D02*
G37*
G36*
X65Y365D02*
X57Y363D01*
X50Y359D01*
X46Y352D01*
X44Y344D01*
X46Y336D01*
X50Y329D01*
X57Y325D01*
X65Y323D01*
X73Y325D01*
X80Y329D01*
X84Y336D01*
X86Y344D01*
X84Y352D01*
X80Y359D01*
X73Y363D01*
X65Y365D01*
D02*
G37*
G36*
X613Y438D02*
X605Y436D01*
X598Y432D01*
X594Y425D01*
X592Y417D01*
X594Y409D01*
X598Y402D01*
X605Y398D01*
X613Y396D01*
X614Y395D01*
X613Y390D01*
X615Y382D01*
X619Y375D01*
X626Y371D01*
X634Y369D01*
X642Y371D01*
X649Y375D01*
X653Y382D01*
X655Y390D01*
X653Y398D01*
X649Y405D01*
X642Y409D01*
X634Y411D01*
X633Y412D01*
X634Y417D01*
X632Y425D01*
X628Y432D01*
X621Y436D01*
X613Y438D01*
D02*
G37*
G36*
X585Y476D02*
X577Y474D01*
X570Y470D01*
X566Y463D01*
X564Y455D01*
X566Y447D01*
X570Y440D01*
X577Y436D01*
X585Y434D01*
X593Y436D01*
X600Y440D01*
X604Y447D01*
X606Y455D01*
X604Y463D01*
X600Y470D01*
X593Y474D01*
X585Y476D01*
D02*
G37*
G36*
X1300Y531D02*
X1292Y530D01*
X1285Y527D01*
X1278Y522D01*
X1273Y515D01*
X1270Y508D01*
X1269Y500D01*
X1270Y492D01*
X1273Y485D01*
X1278Y478D01*
X1285Y473D01*
X1292Y470D01*
X1300Y469D01*
X1308Y470D01*
X1315Y473D01*
X1322Y478D01*
X1327Y485D01*
X1330Y492D01*
X1331Y500D01*
X1330Y508D01*
X1327Y515D01*
X1322Y522D01*
X1315Y527D01*
X1308Y530D01*
X1300Y531D01*
D02*
G37*
G36*
X1254Y561D02*
X1246Y559D01*
X1239Y555D01*
X1235Y548D01*
X1233Y540D01*
X1235Y532D01*
X1239Y525D01*
X1246Y521D01*
X1254Y519D01*
X1262Y521D01*
X1269Y525D01*
X1273Y532D01*
X1275Y540D01*
X1273Y548D01*
X1269Y555D01*
X1262Y559D01*
X1254Y561D01*
D02*
G37*
G36*
X471Y566D02*
X463Y564D01*
X456Y560D01*
X452Y553D01*
X450Y545D01*
X452Y537D01*
X456Y530D01*
X463Y526D01*
X471Y524D01*
X479Y526D01*
X486Y530D01*
X490Y537D01*
X492Y545D01*
X490Y553D01*
X486Y560D01*
X479Y564D01*
X471Y566D01*
D02*
G37*
G36*
X1200Y531D02*
X1192Y530D01*
X1185Y527D01*
X1178Y522D01*
X1173Y515D01*
X1170Y508D01*
X1169Y500D01*
X1170Y492D01*
X1173Y485D01*
X1178Y478D01*
X1185Y473D01*
X1192Y470D01*
X1200Y469D01*
X1208Y470D01*
X1215Y473D01*
X1222Y478D01*
X1227Y485D01*
X1230Y492D01*
X1231Y500D01*
X1230Y508D01*
X1227Y515D01*
X1222Y522D01*
X1215Y527D01*
X1208Y530D01*
X1200Y531D01*
D02*
G37*
G36*
X743Y475D02*
X735Y473D01*
X728Y469D01*
X724Y462D01*
X722Y454D01*
X724Y446D01*
X728Y440D01*
X727Y438D01*
X726Y435D01*
X721Y436D01*
X713Y434D01*
X706Y430D01*
X702Y423D01*
X700Y415D01*
X702Y407D01*
X706Y400D01*
X713Y396D01*
X721Y394D01*
X729Y396D01*
X736Y400D01*
X740Y407D01*
X742Y415D01*
X740Y423D01*
X736Y429D01*
X737Y431D01*
X738Y434D01*
X743Y433D01*
X751Y435D01*
X758Y439D01*
X762Y446D01*
X764Y454D01*
X762Y462D01*
X758Y469D01*
X751Y473D01*
X743Y475D01*
D02*
G37*
G36*
X1250Y456D02*
X1229D01*
Y435D01*
X1250D01*
Y456D01*
D02*
G37*
G36*
X1305Y457D02*
X1298Y456D01*
X1292Y453D01*
X1286Y449D01*
X1286Y449D01*
X1281Y450D01*
Y456D01*
X1260D01*
Y430D01*
X1255D01*
Y425D01*
X1229D01*
Y404D01*
X1235D01*
X1236Y399D01*
X1236Y399D01*
X1232Y393D01*
X1229Y387D01*
X1228Y380D01*
X1229Y373D01*
X1232Y367D01*
X1236Y361D01*
X1240Y358D01*
X1240Y357D01*
Y353D01*
X1240Y352D01*
X1236Y349D01*
X1232Y343D01*
X1229Y337D01*
X1228Y330D01*
X1229Y323D01*
X1232Y317D01*
X1236Y311D01*
X1242Y307D01*
X1248Y304D01*
X1255Y303D01*
X1262Y304D01*
X1268Y307D01*
X1274Y311D01*
X1277Y315D01*
X1278Y315D01*
X1282D01*
X1283Y315D01*
X1286Y311D01*
X1290Y308D01*
X1290Y307D01*
Y303D01*
X1290Y302D01*
X1286Y299D01*
X1282Y293D01*
X1279Y287D01*
X1278Y280D01*
X1279Y273D01*
X1282Y267D01*
X1286Y261D01*
X1290Y258D01*
X1290Y257D01*
Y253D01*
X1290Y252D01*
X1286Y249D01*
X1283Y245D01*
X1282Y245D01*
X1278D01*
X1277Y245D01*
X1274Y249D01*
X1268Y253D01*
X1262Y256D01*
X1255Y257D01*
X1248Y256D01*
X1242Y253D01*
X1236Y249D01*
X1232Y243D01*
X1232Y243D01*
X1227Y245D01*
X1227Y245D01*
X1225Y253D01*
X1221Y260D01*
X1214Y264D01*
X1206Y266D01*
X1198Y264D01*
X1191Y260D01*
X1187Y253D01*
X1185Y245D01*
X1187Y237D01*
X1191Y230D01*
X1198Y226D01*
X1206Y224D01*
X1214Y226D01*
X1221Y230D01*
X1224Y235D01*
X1228Y233D01*
X1228Y230D01*
X1229Y223D01*
X1232Y217D01*
X1236Y211D01*
X1242Y207D01*
X1248Y204D01*
X1255Y203D01*
X1262Y204D01*
X1268Y207D01*
X1274Y211D01*
X1277Y215D01*
X1278Y215D01*
X1282D01*
X1283Y215D01*
X1286Y211D01*
X1292Y207D01*
X1298Y204D01*
X1305Y203D01*
X1312Y204D01*
X1318Y207D01*
X1324Y211D01*
X1328Y217D01*
X1331Y223D01*
X1332Y230D01*
X1331Y237D01*
X1328Y243D01*
X1324Y249D01*
X1320Y252D01*
X1320Y253D01*
Y257D01*
X1320Y258D01*
X1324Y261D01*
X1328Y267D01*
X1331Y273D01*
X1332Y280D01*
X1331Y287D01*
X1328Y293D01*
X1324Y299D01*
X1320Y302D01*
X1320Y303D01*
Y307D01*
X1320Y308D01*
X1324Y311D01*
X1328Y317D01*
X1331Y323D01*
X1332Y330D01*
X1331Y337D01*
X1328Y343D01*
X1324Y349D01*
X1320Y352D01*
X1320Y353D01*
Y357D01*
X1320Y358D01*
X1324Y361D01*
X1328Y367D01*
X1331Y373D01*
X1332Y380D01*
X1331Y387D01*
X1328Y393D01*
X1324Y399D01*
X1320Y402D01*
X1320Y403D01*
Y407D01*
X1320Y408D01*
X1324Y411D01*
X1328Y417D01*
X1331Y423D01*
X1332Y430D01*
X1331Y437D01*
X1328Y443D01*
X1324Y449D01*
X1318Y453D01*
X1312Y456D01*
X1305Y457D01*
D02*
G37*
%LPD*%
D25*
X480Y77D02*
Y124D01*
D26*
X640Y42D02*
Y130D01*
D32*
X0Y600D02*
D03*
D34*
X1255Y430D02*
D03*
D37*
X242Y385D02*
D03*
X335Y445D02*
D03*
Y475D02*
D03*
X305Y445D02*
D03*
Y475D02*
D03*
X470Y487D02*
D03*
X669Y251D02*
D03*
X640Y130D02*
D03*
X480Y77D02*
D03*
X365Y475D02*
D03*
Y445D02*
D03*
X1091Y236D02*
D03*
X1014Y458D02*
D03*
M02*
