G04 Layer_Color=16711935*
%FSLAX23Y23*%
%MOIN*%
G70*
G01*
G75*
%ADD52R,0.051X0.047*%
%ADD53R,0.036X0.028*%
%ADD58R,0.047X0.051*%
%ADD67R,0.014X0.020*%
%ADD68C,0.055*%
%ADD69R,0.055X0.055*%
%ADD70R,0.047X0.047*%
%ADD71C,0.047*%
%ADD72O,0.036X0.047*%
%ADD73R,0.061X0.033*%
%ADD74R,0.043X0.055*%
%ADD75R,0.049X0.075*%
%ADD76R,0.055X0.049*%
%ADD77R,0.043X0.049*%
%ADD78R,0.057X0.043*%
%ADD79R,0.093X0.045*%
%ADD80R,0.099X0.055*%
%ADD81R,0.045X0.036*%
D52*
X827Y357D02*
D03*
X893D02*
D03*
D53*
X683Y504D02*
D03*
Y480D02*
D03*
Y456D02*
D03*
X653Y309D02*
D03*
Y333D02*
D03*
Y357D02*
D03*
X770Y208D02*
D03*
Y232D02*
D03*
X885Y518D02*
D03*
Y494D02*
D03*
Y470D02*
D03*
X1071D02*
D03*
Y494D02*
D03*
Y518D02*
D03*
D58*
X875Y171D02*
D03*
Y237D02*
D03*
X710Y248D02*
D03*
Y182D02*
D03*
X825Y237D02*
D03*
Y171D02*
D03*
D67*
X683Y468D02*
D03*
X653Y321D02*
D03*
X770Y220D02*
D03*
X885Y482D02*
D03*
X1071D02*
D03*
D68*
X1300Y500D02*
D03*
X1200D02*
D03*
X900Y100D02*
D03*
X1000D02*
D03*
X1100D02*
D03*
X1200D02*
D03*
X1300D02*
D03*
X100Y0D02*
D03*
X200D02*
D03*
X300D02*
D03*
X400D02*
D03*
X500D02*
D03*
X600D02*
D03*
X700D02*
D03*
X800D02*
D03*
X900D02*
D03*
X1000D02*
D03*
X1100D02*
D03*
X1200D02*
D03*
X1300D02*
D03*
X0Y600D02*
D03*
X100D02*
D03*
X200D02*
D03*
X300D02*
D03*
X400D02*
D03*
X500D02*
D03*
X600D02*
D03*
X700D02*
D03*
X800D02*
D03*
X900D02*
D03*
X1000D02*
D03*
X1100D02*
D03*
X1200D02*
D03*
X1300D02*
D03*
D69*
X0Y0D02*
D03*
D70*
X1255Y430D02*
D03*
D71*
X1305D02*
D03*
X1255Y380D02*
D03*
X1305D02*
D03*
X1255Y330D02*
D03*
X1305D02*
D03*
Y280D02*
D03*
X1255Y230D02*
D03*
X1305D02*
D03*
D72*
X996Y215D02*
D03*
X956D02*
D03*
D73*
X976Y498D02*
D03*
D74*
X576Y302D02*
D03*
D75*
X573Y207D02*
D03*
Y396D02*
D03*
D76*
X325Y519D02*
D03*
D77*
X379D02*
D03*
D78*
X254Y81D02*
D03*
D79*
X83Y521D02*
D03*
D80*
X85Y87D02*
D03*
D81*
X158Y125D02*
D03*
Y168D02*
D03*
Y211D02*
D03*
Y255D02*
D03*
Y298D02*
D03*
Y341D02*
D03*
Y384D02*
D03*
Y428D02*
D03*
M02*
